<?xml version="1.0" encoding="utf-8" standalone="no"?>
<!DOCTYPE svg PUBLIC "-//W3C//DTD SVG 1.1//EN"
  "http://www.w3.org/Graphics/SVG/1.1/DTD/svg11.dtd">
<svg xmlns:xlink="http://www.w3.org/1999/xlink" width="623.402109pt" height="438.351328pt" viewBox="0 0 623.402109 438.351328" xmlns="http://www.w3.org/2000/svg" version="1.1">
 <metadata>
  <rdf:RDF xmlns:dc="http://purl.org/dc/elements/1.1/" xmlns:cc="http://creativecommons.org/ns#" xmlns:rdf="http://www.w3.org/1999/02/22-rdf-syntax-ns#">
   <cc:Work>
    <dc:type rdf:resource="http://purl.org/dc/dcmitype/StillImage"/>
    <dc:date>2022-11-21T13:52:37.532003</dc:date>
    <dc:format>image/svg+xml</dc:format>
    <dc:creator>
     <cc:Agent>
      <dc:title>Matplotlib v3.6.0, https://matplotlib.org/</dc:title>
     </cc:Agent>
    </dc:creator>
   </cc:Work>
  </rdf:RDF>
 </metadata>
 <defs>
  <style type="text/css">*{stroke-linejoin: round; stroke-linecap: butt}</style>
 </defs>
 <g id="figure_1">
  <g id="patch_1">
   <path d="M 0 438.351328 
L 623.402109 438.351328 
L 623.402109 0 
L 0 0 
z
" style="fill: #ffffff"/>
  </g>
  <g id="axes_1">
   <g id="patch_2">
    <path d="M 69.272109 386.1 
L 238.622109 386.1 
L 238.622109 56.4 
L 69.272109 56.4 
z
" style="fill: #ffffff"/>
   </g>
   <g id="matplotlib.axis_1">
    <g id="xtick_1">
     <g id="text_1">
      <!-- 0 -->
      <g style="fill: #262626" transform="translate(92.909336 407.410391) scale(0.165 -0.165)">
       <defs>
        <path id="ArialMT-30" d="M 266 2259 
Q 266 3072 433 3567 
Q 600 4063 929 4331 
Q 1259 4600 1759 4600 
Q 2128 4600 2406 4451 
Q 2684 4303 2865 4023 
Q 3047 3744 3150 3342 
Q 3253 2941 3253 2259 
Q 3253 1453 3087 958 
Q 2922 463 2592 192 
Q 2263 -78 1759 -78 
Q 1097 -78 719 397 
Q 266 969 266 2259 
z
M 844 2259 
Q 844 1131 1108 757 
Q 1372 384 1759 384 
Q 2147 384 2411 759 
Q 2675 1134 2675 2259 
Q 2675 3391 2411 3762 
Q 2147 4134 1753 4134 
Q 1366 4134 1134 3806 
Q 844 3388 844 2259 
z
" transform="scale(0.015625)"/>
       </defs>
       <use xlink:href="#ArialMT-30"/>
      </g>
     </g>
    </g>
    <g id="xtick_2">
     <g id="text_2">
      <!-- + -->
      <g style="fill: #262626" transform="translate(149.128594 407.410391) scale(0.165 -0.165)">
       <defs>
        <path id="ArialMT-2b" d="M 1603 741 
L 1603 1997 
L 356 1997 
L 356 2522 
L 1603 2522 
L 1603 3769 
L 2134 3769 
L 2134 2522 
L 3381 2522 
L 3381 1997 
L 2134 1997 
L 2134 741 
L 1603 741 
z
" transform="scale(0.015625)"/>
       </defs>
       <use xlink:href="#ArialMT-2b"/>
      </g>
     </g>
    </g>
    <g id="xtick_3">
     <g id="text_3">
      <!-- ++ -->
      <g style="fill: #262626" transform="translate(200.760078 407.410391) scale(0.165 -0.165)">
       <use xlink:href="#ArialMT-2b"/>
       <use xlink:href="#ArialMT-2b" x="58.398438"/>
      </g>
     </g>
    </g>
    <g id="text_4">
     <!--   -->
     <g style="fill: #262626" transform="translate(151.446797 427.573828) scale(0.18 -0.18)">
      <defs>
       <path id="ArialMT-20" transform="scale(0.015625)"/>
      </defs>
      <use xlink:href="#ArialMT-20"/>
     </g>
    </g>
   </g>
   <g id="matplotlib.axis_2">
    <g id="ytick_1">
     <g id="line2d_1">
      <path d="M 69.272109 356.2722 
L 238.622109 356.2722 
" clip-path="url(#pce95562d17)" style="fill: none; stroke: #cccccc; stroke-linecap: round"/>
     </g>
     <g id="text_5">
      <!-- 0.50 -->
      <g style="fill: #262626" transform="translate(27.661563 362.177396) scale(0.165 -0.165)">
       <defs>
        <path id="ArialMT-2e" d="M 581 0 
L 581 641 
L 1222 641 
L 1222 0 
L 581 0 
z
" transform="scale(0.015625)"/>
        <path id="ArialMT-35" d="M 266 1200 
L 856 1250 
Q 922 819 1161 601 
Q 1400 384 1738 384 
Q 2144 384 2425 690 
Q 2706 997 2706 1503 
Q 2706 1984 2436 2262 
Q 2166 2541 1728 2541 
Q 1456 2541 1237 2417 
Q 1019 2294 894 2097 
L 366 2166 
L 809 4519 
L 3088 4519 
L 3088 3981 
L 1259 3981 
L 1013 2750 
Q 1425 3038 1878 3038 
Q 2478 3038 2890 2622 
Q 3303 2206 3303 1553 
Q 3303 931 2941 478 
Q 2500 -78 1738 -78 
Q 1113 -78 717 272 
Q 322 622 266 1200 
z
" transform="scale(0.015625)"/>
       </defs>
       <use xlink:href="#ArialMT-30"/>
       <use xlink:href="#ArialMT-2e" x="55.615234"/>
       <use xlink:href="#ArialMT-35" x="83.398438"/>
       <use xlink:href="#ArialMT-30" x="139.013672"/>
      </g>
     </g>
    </g>
    <g id="ytick_2">
     <g id="line2d_2">
      <path d="M 69.272109 315.700499 
L 238.622109 315.700499 
" clip-path="url(#pce95562d17)" style="fill: none; stroke: #cccccc; stroke-linecap: round"/>
     </g>
     <g id="text_6">
      <!-- 0.75 -->
      <g style="fill: #262626" transform="translate(27.661563 321.605695) scale(0.165 -0.165)">
       <defs>
        <path id="ArialMT-37" d="M 303 3981 
L 303 4522 
L 3269 4522 
L 3269 4084 
Q 2831 3619 2401 2847 
Q 1972 2075 1738 1259 
Q 1569 684 1522 0 
L 944 0 
Q 953 541 1156 1306 
Q 1359 2072 1739 2783 
Q 2119 3494 2547 3981 
L 303 3981 
z
" transform="scale(0.015625)"/>
       </defs>
       <use xlink:href="#ArialMT-30"/>
       <use xlink:href="#ArialMT-2e" x="55.615234"/>
       <use xlink:href="#ArialMT-37" x="83.398438"/>
       <use xlink:href="#ArialMT-35" x="139.013672"/>
      </g>
     </g>
    </g>
    <g id="ytick_3">
     <g id="line2d_3">
      <path d="M 69.272109 275.128798 
L 238.622109 275.128798 
" clip-path="url(#pce95562d17)" style="fill: none; stroke: #cccccc; stroke-linecap: round"/>
     </g>
     <g id="text_7">
      <!-- 1.00 -->
      <g style="fill: #262626" transform="translate(27.661563 281.033994) scale(0.165 -0.165)">
       <defs>
        <path id="ArialMT-31" d="M 2384 0 
L 1822 0 
L 1822 3584 
Q 1619 3391 1289 3197 
Q 959 3003 697 2906 
L 697 3450 
Q 1169 3672 1522 3987 
Q 1875 4303 2022 4600 
L 2384 4600 
L 2384 0 
z
" transform="scale(0.015625)"/>
       </defs>
       <use xlink:href="#ArialMT-31"/>
       <use xlink:href="#ArialMT-2e" x="55.615234"/>
       <use xlink:href="#ArialMT-30" x="83.398438"/>
       <use xlink:href="#ArialMT-30" x="139.013672"/>
      </g>
     </g>
    </g>
    <g id="ytick_4">
     <g id="line2d_4">
      <path d="M 69.272109 234.557097 
L 238.622109 234.557097 
" clip-path="url(#pce95562d17)" style="fill: none; stroke: #cccccc; stroke-linecap: round"/>
     </g>
     <g id="text_8">
      <!-- 1.25 -->
      <g style="fill: #262626" transform="translate(27.661563 240.462293) scale(0.165 -0.165)">
       <defs>
        <path id="ArialMT-32" d="M 3222 541 
L 3222 0 
L 194 0 
Q 188 203 259 391 
Q 375 700 629 1000 
Q 884 1300 1366 1694 
Q 2113 2306 2375 2664 
Q 2638 3022 2638 3341 
Q 2638 3675 2398 3904 
Q 2159 4134 1775 4134 
Q 1369 4134 1125 3890 
Q 881 3647 878 3216 
L 300 3275 
Q 359 3922 746 4261 
Q 1134 4600 1788 4600 
Q 2447 4600 2831 4234 
Q 3216 3869 3216 3328 
Q 3216 3053 3103 2787 
Q 2991 2522 2730 2228 
Q 2469 1934 1863 1422 
Q 1356 997 1212 845 
Q 1069 694 975 541 
L 3222 541 
z
" transform="scale(0.015625)"/>
       </defs>
       <use xlink:href="#ArialMT-31"/>
       <use xlink:href="#ArialMT-2e" x="55.615234"/>
       <use xlink:href="#ArialMT-32" x="83.398438"/>
       <use xlink:href="#ArialMT-35" x="139.013672"/>
      </g>
     </g>
    </g>
    <g id="ytick_5">
     <g id="line2d_5">
      <path d="M 69.272109 193.985396 
L 238.622109 193.985396 
" clip-path="url(#pce95562d17)" style="fill: none; stroke: #cccccc; stroke-linecap: round"/>
     </g>
     <g id="text_9">
      <!-- 1.50 -->
      <g style="fill: #262626" transform="translate(27.661563 199.890592) scale(0.165 -0.165)">
       <use xlink:href="#ArialMT-31"/>
       <use xlink:href="#ArialMT-2e" x="55.615234"/>
       <use xlink:href="#ArialMT-35" x="83.398438"/>
       <use xlink:href="#ArialMT-30" x="139.013672"/>
      </g>
     </g>
    </g>
    <g id="ytick_6">
     <g id="line2d_6">
      <path d="M 69.272109 153.413695 
L 238.622109 153.413695 
" clip-path="url(#pce95562d17)" style="fill: none; stroke: #cccccc; stroke-linecap: round"/>
     </g>
     <g id="text_10">
      <!-- 1.75 -->
      <g style="fill: #262626" transform="translate(27.661563 159.318891) scale(0.165 -0.165)">
       <use xlink:href="#ArialMT-31"/>
       <use xlink:href="#ArialMT-2e" x="55.615234"/>
       <use xlink:href="#ArialMT-37" x="83.398438"/>
       <use xlink:href="#ArialMT-35" x="139.013672"/>
      </g>
     </g>
    </g>
    <g id="ytick_7">
     <g id="line2d_7">
      <path d="M 69.272109 112.841994 
L 238.622109 112.841994 
" clip-path="url(#pce95562d17)" style="fill: none; stroke: #cccccc; stroke-linecap: round"/>
     </g>
     <g id="text_11">
      <!-- 2.00 -->
      <g style="fill: #262626" transform="translate(27.661563 118.74719) scale(0.165 -0.165)">
       <use xlink:href="#ArialMT-32"/>
       <use xlink:href="#ArialMT-2e" x="55.615234"/>
       <use xlink:href="#ArialMT-30" x="83.398438"/>
       <use xlink:href="#ArialMT-30" x="139.013672"/>
      </g>
     </g>
    </g>
    <g id="ytick_8">
     <g id="line2d_8">
      <path d="M 69.272109 72.270293 
L 238.622109 72.270293 
" clip-path="url(#pce95562d17)" style="fill: none; stroke: #cccccc; stroke-linecap: round"/>
     </g>
     <g id="text_12">
      <!-- 2.25 -->
      <g style="fill: #262626" transform="translate(27.661563 78.175489) scale(0.165 -0.165)">
       <use xlink:href="#ArialMT-32"/>
       <use xlink:href="#ArialMT-2e" x="55.615234"/>
       <use xlink:href="#ArialMT-32" x="83.398438"/>
       <use xlink:href="#ArialMT-35" x="139.013672"/>
      </g>
     </g>
    </g>
    <g id="text_13">
     <!-- Fold of control -->
     <g style="fill: #262626" transform="translate(20.084063 278.273437) rotate(-90) scale(0.18 -0.18)">
      <defs>
       <path id="ArialMT-46" d="M 525 0 
L 525 4581 
L 3616 4581 
L 3616 4041 
L 1131 4041 
L 1131 2622 
L 3281 2622 
L 3281 2081 
L 1131 2081 
L 1131 0 
L 525 0 
z
" transform="scale(0.015625)"/>
       <path id="ArialMT-6f" d="M 213 1659 
Q 213 2581 725 3025 
Q 1153 3394 1769 3394 
Q 2453 3394 2887 2945 
Q 3322 2497 3322 1706 
Q 3322 1066 3130 698 
Q 2938 331 2570 128 
Q 2203 -75 1769 -75 
Q 1072 -75 642 372 
Q 213 819 213 1659 
z
M 791 1659 
Q 791 1022 1069 705 
Q 1347 388 1769 388 
Q 2188 388 2466 706 
Q 2744 1025 2744 1678 
Q 2744 2294 2464 2611 
Q 2184 2928 1769 2928 
Q 1347 2928 1069 2612 
Q 791 2297 791 1659 
z
" transform="scale(0.015625)"/>
       <path id="ArialMT-6c" d="M 409 0 
L 409 4581 
L 972 4581 
L 972 0 
L 409 0 
z
" transform="scale(0.015625)"/>
       <path id="ArialMT-64" d="M 2575 0 
L 2575 419 
Q 2259 -75 1647 -75 
Q 1250 -75 917 144 
Q 584 363 401 755 
Q 219 1147 219 1656 
Q 219 2153 384 2558 
Q 550 2963 881 3178 
Q 1213 3394 1622 3394 
Q 1922 3394 2156 3267 
Q 2391 3141 2538 2938 
L 2538 4581 
L 3097 4581 
L 3097 0 
L 2575 0 
z
M 797 1656 
Q 797 1019 1065 703 
Q 1334 388 1700 388 
Q 2069 388 2326 689 
Q 2584 991 2584 1609 
Q 2584 2291 2321 2609 
Q 2059 2928 1675 2928 
Q 1300 2928 1048 2622 
Q 797 2316 797 1656 
z
" transform="scale(0.015625)"/>
       <path id="ArialMT-66" d="M 556 0 
L 556 2881 
L 59 2881 
L 59 3319 
L 556 3319 
L 556 3672 
Q 556 4006 616 4169 
Q 697 4388 901 4523 
Q 1106 4659 1475 4659 
Q 1713 4659 2000 4603 
L 1916 4113 
Q 1741 4144 1584 4144 
Q 1328 4144 1222 4034 
Q 1116 3925 1116 3625 
L 1116 3319 
L 1763 3319 
L 1763 2881 
L 1116 2881 
L 1116 0 
L 556 0 
z
" transform="scale(0.015625)"/>
       <path id="ArialMT-63" d="M 2588 1216 
L 3141 1144 
Q 3050 572 2676 248 
Q 2303 -75 1759 -75 
Q 1078 -75 664 370 
Q 250 816 250 1647 
Q 250 2184 428 2587 
Q 606 2991 970 3192 
Q 1334 3394 1763 3394 
Q 2303 3394 2647 3120 
Q 2991 2847 3088 2344 
L 2541 2259 
Q 2463 2594 2264 2762 
Q 2066 2931 1784 2931 
Q 1359 2931 1093 2626 
Q 828 2322 828 1663 
Q 828 994 1084 691 
Q 1341 388 1753 388 
Q 2084 388 2306 591 
Q 2528 794 2588 1216 
z
" transform="scale(0.015625)"/>
       <path id="ArialMT-6e" d="M 422 0 
L 422 3319 
L 928 3319 
L 928 2847 
Q 1294 3394 1984 3394 
Q 2284 3394 2536 3286 
Q 2788 3178 2913 3003 
Q 3038 2828 3088 2588 
Q 3119 2431 3119 2041 
L 3119 0 
L 2556 0 
L 2556 2019 
Q 2556 2363 2490 2533 
Q 2425 2703 2258 2804 
Q 2091 2906 1866 2906 
Q 1506 2906 1245 2678 
Q 984 2450 984 1813 
L 984 0 
L 422 0 
z
" transform="scale(0.015625)"/>
       <path id="ArialMT-74" d="M 1650 503 
L 1731 6 
Q 1494 -44 1306 -44 
Q 1000 -44 831 53 
Q 663 150 594 308 
Q 525 466 525 972 
L 525 2881 
L 113 2881 
L 113 3319 
L 525 3319 
L 525 4141 
L 1084 4478 
L 1084 3319 
L 1650 3319 
L 1650 2881 
L 1084 2881 
L 1084 941 
Q 1084 700 1114 631 
Q 1144 563 1211 522 
Q 1278 481 1403 481 
Q 1497 481 1650 503 
z
" transform="scale(0.015625)"/>
       <path id="ArialMT-72" d="M 416 0 
L 416 3319 
L 922 3319 
L 922 2816 
Q 1116 3169 1280 3281 
Q 1444 3394 1641 3394 
Q 1925 3394 2219 3213 
L 2025 2691 
Q 1819 2813 1613 2813 
Q 1428 2813 1281 2702 
Q 1134 2591 1072 2394 
Q 978 2094 978 1738 
L 978 0 
L 416 0 
z
" transform="scale(0.015625)"/>
      </defs>
      <use xlink:href="#ArialMT-46"/>
      <use xlink:href="#ArialMT-6f" x="61.083984"/>
      <use xlink:href="#ArialMT-6c" x="116.699219"/>
      <use xlink:href="#ArialMT-64" x="138.916016"/>
      <use xlink:href="#ArialMT-20" x="194.53125"/>
      <use xlink:href="#ArialMT-6f" x="222.314453"/>
      <use xlink:href="#ArialMT-66" x="277.929688"/>
      <use xlink:href="#ArialMT-20" x="305.712891"/>
      <use xlink:href="#ArialMT-63" x="333.496094"/>
      <use xlink:href="#ArialMT-6f" x="383.496094"/>
      <use xlink:href="#ArialMT-6e" x="439.111328"/>
      <use xlink:href="#ArialMT-74" x="494.726562"/>
      <use xlink:href="#ArialMT-72" x="522.509766"/>
      <use xlink:href="#ArialMT-6f" x="555.810547"/>
      <use xlink:href="#ArialMT-6c" x="611.425781"/>
     </g>
    </g>
   </g>
   <g id="patch_3">
    <path d="M 77.739609 304.434087 
L 117.254609 304.434087 
L 117.254609 246.192913 
L 77.739609 246.192913 
L 77.739609 304.434087 
z
" clip-path="url(#pce95562d17)" style="fill: #3c6682; stroke: #393939; stroke-width: 1.5; stroke-linejoin: miter"/>
   </g>
   <g id="patch_4">
    <path d="M 134.189609 260.454749 
L 173.704609 260.454749 
L 173.704609 199.41096 
L 134.189609 199.41096 
L 134.189609 260.454749 
z
" clip-path="url(#pce95562d17)" style="fill: #3c6682; stroke: #393939; stroke-width: 1.5; stroke-linejoin: miter"/>
   </g>
   <g id="patch_5">
    <path d="M 190.639609 211.024147 
L 230.154609 211.024147 
L 230.154609 123.565933 
L 190.639609 123.565933 
L 190.639609 211.024147 
z
" clip-path="url(#pce95562d17)" style="fill: #3c6682; stroke: #393939; stroke-width: 1.5; stroke-linejoin: miter"/>
   </g>
   <g id="patch_6">
    <path d="M 97.497109 437.415602 
L 97.497109 437.415602 
L 97.497109 437.415602 
L 97.497109 437.415602 
z
" clip-path="url(#pce95562d17)" style="fill: #3c6682; stroke: #393939; stroke-width: 0.75; stroke-linejoin: miter"/>
   </g>
   <g id="patch_7">
    <path d="M 97.497109 437.415602 
L 97.497109 437.415602 
L 97.497109 437.415602 
L 97.497109 437.415602 
z
" clip-path="url(#pce95562d17)" style="fill: #45a778; stroke: #393939; stroke-width: 0.75; stroke-linejoin: miter"/>
   </g>
   <g id="patch_8">
    <path d="M 97.497109 437.415602 
L 97.497109 437.415602 
L 97.497109 437.415602 
L 97.497109 437.415602 
z
" clip-path="url(#pce95562d17)" style="fill: #3c6682; stroke: #393939; stroke-width: 0.75; stroke-linejoin: miter"/>
   </g>
   <g id="line2d_9">
    <path d="M 97.497109 304.434087 
L 97.497109 339.742258 
" clip-path="url(#pce95562d17)" style="fill: none; stroke: #393939; stroke-width: 1.5; stroke-linecap: round"/>
   </g>
   <g id="line2d_10">
    <path d="M 97.497109 246.192913 
L 97.497109 185.897118 
" clip-path="url(#pce95562d17)" style="fill: none; stroke: #393939; stroke-width: 1.5; stroke-linecap: round"/>
   </g>
   <g id="line2d_11">
    <path d="M 87.618359 339.742258 
L 107.375859 339.742258 
" clip-path="url(#pce95562d17)" style="fill: none; stroke: #393939; stroke-width: 1.5; stroke-linecap: round"/>
   </g>
   <g id="line2d_12">
    <path d="M 87.618359 185.897118 
L 107.375859 185.897118 
" clip-path="url(#pce95562d17)" style="fill: none; stroke: #393939; stroke-width: 1.5; stroke-linecap: round"/>
   </g>
   <g id="line2d_13">
    <path d="M 153.947109 260.454749 
L 153.947109 297.916284 
" clip-path="url(#pce95562d17)" style="fill: none; stroke: #393939; stroke-width: 1.5; stroke-linecap: round"/>
   </g>
   <g id="line2d_14">
    <path d="M 153.947109 199.41096 
L 153.947109 131.767424 
" clip-path="url(#pce95562d17)" style="fill: none; stroke: #393939; stroke-width: 1.5; stroke-linecap: round"/>
   </g>
   <g id="line2d_15">
    <path d="M 144.068359 297.916284 
L 163.825859 297.916284 
" clip-path="url(#pce95562d17)" style="fill: none; stroke: #393939; stroke-width: 1.5; stroke-linecap: round"/>
   </g>
   <g id="line2d_16">
    <path d="M 144.068359 131.767424 
L 163.825859 131.767424 
" clip-path="url(#pce95562d17)" style="fill: none; stroke: #393939; stroke-width: 1.5; stroke-linecap: round"/>
   </g>
   <g id="line2d_17">
    <path d="M 210.397109 211.024147 
L 210.397109 265.033155 
" clip-path="url(#pce95562d17)" style="fill: none; stroke: #393939; stroke-width: 1.5; stroke-linecap: round"/>
   </g>
   <g id="line2d_18">
    <path d="M 210.397109 123.565933 
L 210.397109 71.386364 
" clip-path="url(#pce95562d17)" style="fill: none; stroke: #393939; stroke-width: 1.5; stroke-linecap: round"/>
   </g>
   <g id="line2d_19">
    <path d="M 200.518359 265.033155 
L 220.275859 265.033155 
" clip-path="url(#pce95562d17)" style="fill: none; stroke: #393939; stroke-width: 1.5; stroke-linecap: round"/>
   </g>
   <g id="line2d_20">
    <path d="M 200.518359 71.386364 
L 220.275859 71.386364 
" clip-path="url(#pce95562d17)" style="fill: none; stroke: #393939; stroke-width: 1.5; stroke-linecap: round"/>
   </g>
   <g id="line2d_21">
    <path d="M 77.739609 275.128798 
L 117.254609 275.128798 
" clip-path="url(#pce95562d17)" style="fill: none; stroke: #393939; stroke-width: 1.5; stroke-linecap: round"/>
   </g>
   <g id="line2d_22">
    <path d="M 134.189609 212.249925 
L 173.704609 212.249925 
" clip-path="url(#pce95562d17)" style="fill: none; stroke: #393939; stroke-width: 1.5; stroke-linecap: round"/>
   </g>
   <g id="line2d_23">
    <path d="M 190.639609 163.809413 
L 230.154609 163.809413 
" clip-path="url(#pce95562d17)" style="fill: none; stroke: #393939; stroke-width: 1.5; stroke-linecap: round"/>
   </g>
   <g id="patch_9">
    <path d="M 69.272109 386.1 
L 69.272109 56.4 
" style="fill: none; stroke: #cccccc; stroke-width: 1.25; stroke-linejoin: miter; stroke-linecap: square"/>
   </g>
   <g id="patch_10">
    <path d="M 69.272109 386.1 
L 238.622109 386.1 
" style="fill: none; stroke: #cccccc; stroke-width: 1.25; stroke-linejoin: miter; stroke-linecap: square"/>
   </g>
   <g id="text_14">
    <!-- caff -->
    <g style="fill: #262626" transform="translate(139.599141 50.4) scale(0.18 -0.18)">
     <defs>
      <path id="ArialMT-61" d="M 2588 409 
Q 2275 144 1986 34 
Q 1697 -75 1366 -75 
Q 819 -75 525 192 
Q 231 459 231 875 
Q 231 1119 342 1320 
Q 453 1522 633 1644 
Q 813 1766 1038 1828 
Q 1203 1872 1538 1913 
Q 2219 1994 2541 2106 
Q 2544 2222 2544 2253 
Q 2544 2597 2384 2738 
Q 2169 2928 1744 2928 
Q 1347 2928 1158 2789 
Q 969 2650 878 2297 
L 328 2372 
Q 403 2725 575 2942 
Q 747 3159 1072 3276 
Q 1397 3394 1825 3394 
Q 2250 3394 2515 3294 
Q 2781 3194 2906 3042 
Q 3031 2891 3081 2659 
Q 3109 2516 3109 2141 
L 3109 1391 
Q 3109 606 3145 398 
Q 3181 191 3288 0 
L 2700 0 
Q 2613 175 2588 409 
z
M 2541 1666 
Q 2234 1541 1622 1453 
Q 1275 1403 1131 1340 
Q 988 1278 909 1158 
Q 831 1038 831 891 
Q 831 666 1001 516 
Q 1172 366 1500 366 
Q 1825 366 2078 508 
Q 2331 650 2450 897 
Q 2541 1088 2541 1459 
L 2541 1666 
z
" transform="scale(0.015625)"/>
     </defs>
     <use xlink:href="#ArialMT-63"/>
     <use xlink:href="#ArialMT-61" x="50"/>
     <use xlink:href="#ArialMT-66" x="105.615234"/>
     <use xlink:href="#ArialMT-66" x="131.648438"/>
    </g>
   </g>
  </g>
  <g id="axes_2">
   <g id="patch_11">
    <path d="M 258.062109 386.1 
L 427.412109 386.1 
L 427.412109 56.4 
L 258.062109 56.4 
z
" style="fill: #ffffff"/>
   </g>
   <g id="matplotlib.axis_3">
    <g id="xtick_4">
     <g id="text_15">
      <!-- 0 -->
      <g style="fill: #262626" transform="translate(281.699336 407.410391) scale(0.165 -0.165)">
       <use xlink:href="#ArialMT-30"/>
      </g>
     </g>
    </g>
    <g id="xtick_5">
     <g id="text_16">
      <!-- + -->
      <g style="fill: #262626" transform="translate(337.918594 407.410391) scale(0.165 -0.165)">
       <use xlink:href="#ArialMT-2b"/>
      </g>
     </g>
    </g>
    <g id="xtick_6">
     <g id="text_17">
      <!-- ++ -->
      <g style="fill: #262626" transform="translate(389.550078 407.410391) scale(0.165 -0.165)">
       <use xlink:href="#ArialMT-2b"/>
       <use xlink:href="#ArialMT-2b" x="58.398438"/>
      </g>
     </g>
    </g>
    <g id="text_18">
     <!--   -->
     <g style="fill: #262626" transform="translate(340.236797 427.573828) scale(0.18 -0.18)">
      <use xlink:href="#ArialMT-20"/>
     </g>
    </g>
   </g>
   <g id="matplotlib.axis_4">
    <g id="ytick_9">
     <g id="line2d_24">
      <path d="M 258.062109 356.2722 
L 427.412109 356.2722 
" clip-path="url(#p776116d8e6)" style="fill: none; stroke: #cccccc; stroke-linecap: round"/>
     </g>
    </g>
    <g id="ytick_10">
     <g id="line2d_25">
      <path d="M 258.062109 315.700499 
L 427.412109 315.700499 
" clip-path="url(#p776116d8e6)" style="fill: none; stroke: #cccccc; stroke-linecap: round"/>
     </g>
    </g>
    <g id="ytick_11">
     <g id="line2d_26">
      <path d="M 258.062109 275.128798 
L 427.412109 275.128798 
" clip-path="url(#p776116d8e6)" style="fill: none; stroke: #cccccc; stroke-linecap: round"/>
     </g>
    </g>
    <g id="ytick_12">
     <g id="line2d_27">
      <path d="M 258.062109 234.557097 
L 427.412109 234.557097 
" clip-path="url(#p776116d8e6)" style="fill: none; stroke: #cccccc; stroke-linecap: round"/>
     </g>
    </g>
    <g id="ytick_13">
     <g id="line2d_28">
      <path d="M 258.062109 193.985396 
L 427.412109 193.985396 
" clip-path="url(#p776116d8e6)" style="fill: none; stroke: #cccccc; stroke-linecap: round"/>
     </g>
    </g>
    <g id="ytick_14">
     <g id="line2d_29">
      <path d="M 258.062109 153.413695 
L 427.412109 153.413695 
" clip-path="url(#p776116d8e6)" style="fill: none; stroke: #cccccc; stroke-linecap: round"/>
     </g>
    </g>
    <g id="ytick_15">
     <g id="line2d_30">
      <path d="M 258.062109 112.841994 
L 427.412109 112.841994 
" clip-path="url(#p776116d8e6)" style="fill: none; stroke: #cccccc; stroke-linecap: round"/>
     </g>
    </g>
    <g id="ytick_16">
     <g id="line2d_31">
      <path d="M 258.062109 72.270293 
L 427.412109 72.270293 
" clip-path="url(#p776116d8e6)" style="fill: none; stroke: #cccccc; stroke-linecap: round"/>
     </g>
    </g>
   </g>
   <g id="patch_12">
    <path d="M 266.529609 298.47875 
L 306.044609 298.47875 
L 306.044609 230.245617 
L 266.529609 230.245617 
L 266.529609 298.47875 
z
" clip-path="url(#p776116d8e6)" style="fill: #45a778; stroke: #393939; stroke-width: 1.5; stroke-linejoin: miter"/>
   </g>
   <g id="patch_13">
    <path d="M 322.979609 302.267936 
L 362.494609 302.267936 
L 362.494609 166.429408 
L 322.979609 166.429408 
L 322.979609 302.267936 
z
" clip-path="url(#p776116d8e6)" style="fill: #45a778; stroke: #393939; stroke-width: 1.5; stroke-linejoin: miter"/>
   </g>
   <g id="patch_14">
    <path d="M 379.429609 361.483539 
L 418.944609 361.483539 
L 418.944609 290.418667 
L 379.429609 290.418667 
L 379.429609 361.483539 
z
" clip-path="url(#p776116d8e6)" style="fill: #45a778; stroke: #393939; stroke-width: 1.5; stroke-linejoin: miter"/>
   </g>
   <g id="patch_15">
    <path d="M 286.287109 437.415602 
L 286.287109 437.415602 
L 286.287109 437.415602 
L 286.287109 437.415602 
z
" clip-path="url(#p776116d8e6)" style="fill: #3c6682; stroke: #393939; stroke-width: 0.75; stroke-linejoin: miter"/>
   </g>
   <g id="patch_16">
    <path d="M 286.287109 437.415602 
L 286.287109 437.415602 
L 286.287109 437.415602 
L 286.287109 437.415602 
z
" clip-path="url(#p776116d8e6)" style="fill: #45a778; stroke: #393939; stroke-width: 0.75; stroke-linejoin: miter"/>
   </g>
   <g id="patch_17">
    <path d="M 286.287109 437.415602 
L 286.287109 437.415602 
L 286.287109 437.415602 
L 286.287109 437.415602 
z
" clip-path="url(#p776116d8e6)" style="fill: #3c6682; stroke: #393939; stroke-width: 0.75; stroke-linejoin: miter"/>
   </g>
   <g id="line2d_32">
    <path d="M 286.287109 298.47875 
L 286.287109 315.062079 
" clip-path="url(#p776116d8e6)" style="fill: none; stroke: #393939; stroke-width: 1.5; stroke-linecap: round"/>
   </g>
   <g id="line2d_33">
    <path d="M 286.287109 230.245617 
L 286.287109 187.600418 
" clip-path="url(#p776116d8e6)" style="fill: none; stroke: #393939; stroke-width: 1.5; stroke-linecap: round"/>
   </g>
   <g id="line2d_34">
    <path d="M 276.408359 315.062079 
L 296.165859 315.062079 
" clip-path="url(#p776116d8e6)" style="fill: none; stroke: #393939; stroke-width: 1.5; stroke-linecap: round"/>
   </g>
   <g id="line2d_35">
    <path d="M 276.408359 187.600418 
L 296.165859 187.600418 
" clip-path="url(#p776116d8e6)" style="fill: none; stroke: #393939; stroke-width: 1.5; stroke-linecap: round"/>
   </g>
   <g id="line2d_36">
    <path d="M 342.737109 302.267936 
L 342.737109 318.334964 
" clip-path="url(#p776116d8e6)" style="fill: none; stroke: #393939; stroke-width: 1.5; stroke-linecap: round"/>
   </g>
   <g id="line2d_37">
    <path d="M 342.737109 166.429408 
L 342.737109 105.83866 
" clip-path="url(#p776116d8e6)" style="fill: none; stroke: #393939; stroke-width: 1.5; stroke-linecap: round"/>
   </g>
   <g id="line2d_38">
    <path d="M 332.858359 318.334964 
L 352.615859 318.334964 
" clip-path="url(#p776116d8e6)" style="fill: none; stroke: #393939; stroke-width: 1.5; stroke-linecap: round"/>
   </g>
   <g id="line2d_39">
    <path d="M 332.858359 105.83866 
L 352.615859 105.83866 
" clip-path="url(#p776116d8e6)" style="fill: none; stroke: #393939; stroke-width: 1.5; stroke-linecap: round"/>
   </g>
   <g id="line2d_40">
    <path d="M 399.187109 361.483539 
L 399.187109 371.113636 
" clip-path="url(#p776116d8e6)" style="fill: none; stroke: #393939; stroke-width: 1.5; stroke-linecap: round"/>
   </g>
   <g id="line2d_41">
    <path d="M 399.187109 290.418667 
L 399.187109 212.326722 
" clip-path="url(#p776116d8e6)" style="fill: none; stroke: #393939; stroke-width: 1.5; stroke-linecap: round"/>
   </g>
   <g id="line2d_42">
    <path d="M 389.308359 371.113636 
L 409.065859 371.113636 
" clip-path="url(#p776116d8e6)" style="fill: none; stroke: #393939; stroke-width: 1.5; stroke-linecap: round"/>
   </g>
   <g id="line2d_43">
    <path d="M 389.308359 212.326722 
L 409.065859 212.326722 
" clip-path="url(#p776116d8e6)" style="fill: none; stroke: #393939; stroke-width: 1.5; stroke-linecap: round"/>
   </g>
   <g id="line2d_44">
    <path d="M 266.529609 275.128798 
L 306.044609 275.128798 
" clip-path="url(#p776116d8e6)" style="fill: none; stroke: #393939; stroke-width: 1.5; stroke-linecap: round"/>
   </g>
   <g id="line2d_45">
    <path d="M 322.979609 268.035712 
L 362.494609 268.035712 
" clip-path="url(#p776116d8e6)" style="fill: none; stroke: #393939; stroke-width: 1.5; stroke-linecap: round"/>
   </g>
   <g id="line2d_46">
    <path d="M 379.429609 341.613776 
L 418.944609 341.613776 
" clip-path="url(#p776116d8e6)" style="fill: none; stroke: #393939; stroke-width: 1.5; stroke-linecap: round"/>
   </g>
   <g id="patch_18">
    <path d="M 258.062109 386.1 
L 258.062109 56.4 
" style="fill: none; stroke: #cccccc; stroke-width: 1.25; stroke-linejoin: miter; stroke-linecap: square"/>
   </g>
   <g id="patch_19">
    <path d="M 258.062109 386.1 
L 427.412109 386.1 
" style="fill: none; stroke: #cccccc; stroke-width: 1.25; stroke-linejoin: miter; stroke-linecap: square"/>
   </g>
   <g id="text_19">
    <!-- 9j -->
    <g style="fill: #262626" transform="translate(335.732578 50.4) scale(0.18 -0.18)">
     <defs>
      <path id="ArialMT-39" d="M 350 1059 
L 891 1109 
Q 959 728 1153 556 
Q 1347 384 1650 384 
Q 1909 384 2104 503 
Q 2300 622 2425 820 
Q 2550 1019 2634 1356 
Q 2719 1694 2719 2044 
Q 2719 2081 2716 2156 
Q 2547 1888 2255 1720 
Q 1963 1553 1622 1553 
Q 1053 1553 659 1965 
Q 266 2378 266 3053 
Q 266 3750 677 4175 
Q 1088 4600 1706 4600 
Q 2153 4600 2523 4359 
Q 2894 4119 3086 3673 
Q 3278 3228 3278 2384 
Q 3278 1506 3087 986 
Q 2897 466 2520 194 
Q 2144 -78 1638 -78 
Q 1100 -78 759 220 
Q 419 519 350 1059 
z
M 2653 3081 
Q 2653 3566 2395 3850 
Q 2138 4134 1775 4134 
Q 1400 4134 1122 3828 
Q 844 3522 844 3034 
Q 844 2597 1108 2323 
Q 1372 2050 1759 2050 
Q 2150 2050 2401 2323 
Q 2653 2597 2653 3081 
z
" transform="scale(0.015625)"/>
      <path id="ArialMT-6a" d="M 419 3928 
L 419 4581 
L 981 4581 
L 981 3928 
L 419 3928 
z
M -294 -1288 
L -188 -809 
Q -19 -853 78 -853 
Q 250 -853 334 -739 
Q 419 -625 419 -169 
L 419 3319 
L 981 3319 
L 981 -181 
Q 981 -794 822 -1034 
Q 619 -1347 147 -1347 
Q -81 -1347 -294 -1288 
z
" transform="scale(0.015625)"/>
     </defs>
     <use xlink:href="#ArialMT-39"/>
     <use xlink:href="#ArialMT-6a" x="55.615234"/>
    </g>
   </g>
  </g>
  <g id="axes_3">
   <g id="patch_20">
    <path d="M 446.852109 386.1 
L 616.202109 386.1 
L 616.202109 56.4 
L 446.852109 56.4 
z
" style="fill: #ffffff"/>
   </g>
   <g id="matplotlib.axis_5">
    <g id="xtick_7">
     <g id="text_20">
      <!-- 0 -->
      <g style="fill: #262626" transform="translate(470.489336 407.410391) scale(0.165 -0.165)">
       <use xlink:href="#ArialMT-30"/>
      </g>
     </g>
    </g>
    <g id="xtick_8">
     <g id="text_21">
      <!-- + -->
      <g style="fill: #262626" transform="translate(526.708594 407.410391) scale(0.165 -0.165)">
       <use xlink:href="#ArialMT-2b"/>
      </g>
     </g>
    </g>
    <g id="xtick_9">
     <g id="text_22">
      <!-- ++ -->
      <g style="fill: #262626" transform="translate(578.340078 407.410391) scale(0.165 -0.165)">
       <use xlink:href="#ArialMT-2b"/>
       <use xlink:href="#ArialMT-2b" x="58.398438"/>
      </g>
     </g>
    </g>
    <g id="text_23">
     <!--   -->
     <g style="fill: #262626" transform="translate(529.026797 427.573828) scale(0.18 -0.18)">
      <use xlink:href="#ArialMT-20"/>
     </g>
    </g>
   </g>
   <g id="matplotlib.axis_6">
    <g id="ytick_17">
     <g id="line2d_47">
      <path d="M 446.852109 356.2722 
L 616.202109 356.2722 
" clip-path="url(#p168424b78b)" style="fill: none; stroke: #cccccc; stroke-linecap: round"/>
     </g>
    </g>
    <g id="ytick_18">
     <g id="line2d_48">
      <path d="M 446.852109 315.700499 
L 616.202109 315.700499 
" clip-path="url(#p168424b78b)" style="fill: none; stroke: #cccccc; stroke-linecap: round"/>
     </g>
    </g>
    <g id="ytick_19">
     <g id="line2d_49">
      <path d="M 446.852109 275.128798 
L 616.202109 275.128798 
" clip-path="url(#p168424b78b)" style="fill: none; stroke: #cccccc; stroke-linecap: round"/>
     </g>
    </g>
    <g id="ytick_20">
     <g id="line2d_50">
      <path d="M 446.852109 234.557097 
L 616.202109 234.557097 
" clip-path="url(#p168424b78b)" style="fill: none; stroke: #cccccc; stroke-linecap: round"/>
     </g>
    </g>
    <g id="ytick_21">
     <g id="line2d_51">
      <path d="M 446.852109 193.985396 
L 616.202109 193.985396 
" clip-path="url(#p168424b78b)" style="fill: none; stroke: #cccccc; stroke-linecap: round"/>
     </g>
    </g>
    <g id="ytick_22">
     <g id="line2d_52">
      <path d="M 446.852109 153.413695 
L 616.202109 153.413695 
" clip-path="url(#p168424b78b)" style="fill: none; stroke: #cccccc; stroke-linecap: round"/>
     </g>
    </g>
    <g id="ytick_23">
     <g id="line2d_53">
      <path d="M 446.852109 112.841994 
L 616.202109 112.841994 
" clip-path="url(#p168424b78b)" style="fill: none; stroke: #cccccc; stroke-linecap: round"/>
     </g>
    </g>
    <g id="ytick_24">
     <g id="line2d_54">
      <path d="M 446.852109 72.270293 
L 616.202109 72.270293 
" clip-path="url(#p168424b78b)" style="fill: none; stroke: #cccccc; stroke-linecap: round"/>
     </g>
    </g>
   </g>
   <g id="patch_21">
    <path d="M 455.319609 298.47875 
L 494.834609 298.47875 
L 494.834609 230.245617 
L 455.319609 230.245617 
L 455.319609 298.47875 
z
" clip-path="url(#p168424b78b)" style="fill: #3c6682; stroke: #393939; stroke-width: 1.5; stroke-linejoin: miter"/>
   </g>
   <g id="patch_22">
    <path d="M 511.769609 302.267936 
L 551.284609 302.267936 
L 551.284609 166.429408 
L 511.769609 166.429408 
L 511.769609 302.267936 
z
" clip-path="url(#p168424b78b)" style="fill: #3c6682; stroke: #393939; stroke-width: 1.5; stroke-linejoin: miter"/>
   </g>
   <g id="patch_23">
    <path d="M 568.219609 361.483539 
L 607.734609 361.483539 
L 607.734609 290.418667 
L 568.219609 290.418667 
L 568.219609 361.483539 
z
" clip-path="url(#p168424b78b)" style="fill: #3c6682; stroke: #393939; stroke-width: 1.5; stroke-linejoin: miter"/>
   </g>
   <g id="patch_24">
    <path d="M 475.077109 437.415602 
L 475.077109 437.415602 
L 475.077109 437.415602 
L 475.077109 437.415602 
z
" clip-path="url(#p168424b78b)" style="fill: #3c6682; stroke: #393939; stroke-width: 0.75; stroke-linejoin: miter"/>
   </g>
   <g id="patch_25">
    <path d="M 475.077109 437.415602 
L 475.077109 437.415602 
L 475.077109 437.415602 
L 475.077109 437.415602 
z
" clip-path="url(#p168424b78b)" style="fill: #45a778; stroke: #393939; stroke-width: 0.75; stroke-linejoin: miter"/>
   </g>
   <g id="patch_26">
    <path d="M 475.077109 437.415602 
L 475.077109 437.415602 
L 475.077109 437.415602 
L 475.077109 437.415602 
z
" clip-path="url(#p168424b78b)" style="fill: #3c6682; stroke: #393939; stroke-width: 0.75; stroke-linejoin: miter"/>
   </g>
   <g id="line2d_55">
    <path d="M 475.077109 298.47875 
L 475.077109 315.062079 
" clip-path="url(#p168424b78b)" style="fill: none; stroke: #393939; stroke-width: 1.5; stroke-linecap: round"/>
   </g>
   <g id="line2d_56">
    <path d="M 475.077109 230.245617 
L 475.077109 187.600418 
" clip-path="url(#p168424b78b)" style="fill: none; stroke: #393939; stroke-width: 1.5; stroke-linecap: round"/>
   </g>
   <g id="line2d_57">
    <path d="M 465.198359 315.062079 
L 484.955859 315.062079 
" clip-path="url(#p168424b78b)" style="fill: none; stroke: #393939; stroke-width: 1.5; stroke-linecap: round"/>
   </g>
   <g id="line2d_58">
    <path d="M 465.198359 187.600418 
L 484.955859 187.600418 
" clip-path="url(#p168424b78b)" style="fill: none; stroke: #393939; stroke-width: 1.5; stroke-linecap: round"/>
   </g>
   <g id="line2d_59">
    <path d="M 531.527109 302.267936 
L 531.527109 318.334964 
" clip-path="url(#p168424b78b)" style="fill: none; stroke: #393939; stroke-width: 1.5; stroke-linecap: round"/>
   </g>
   <g id="line2d_60">
    <path d="M 531.527109 166.429408 
L 531.527109 105.83866 
" clip-path="url(#p168424b78b)" style="fill: none; stroke: #393939; stroke-width: 1.5; stroke-linecap: round"/>
   </g>
   <g id="line2d_61">
    <path d="M 521.648359 318.334964 
L 541.405859 318.334964 
" clip-path="url(#p168424b78b)" style="fill: none; stroke: #393939; stroke-width: 1.5; stroke-linecap: round"/>
   </g>
   <g id="line2d_62">
    <path d="M 521.648359 105.83866 
L 541.405859 105.83866 
" clip-path="url(#p168424b78b)" style="fill: none; stroke: #393939; stroke-width: 1.5; stroke-linecap: round"/>
   </g>
   <g id="line2d_63">
    <path d="M 587.977109 361.483539 
L 587.977109 371.113636 
" clip-path="url(#p168424b78b)" style="fill: none; stroke: #393939; stroke-width: 1.5; stroke-linecap: round"/>
   </g>
   <g id="line2d_64">
    <path d="M 587.977109 290.418667 
L 587.977109 212.326722 
" clip-path="url(#p168424b78b)" style="fill: none; stroke: #393939; stroke-width: 1.5; stroke-linecap: round"/>
   </g>
   <g id="line2d_65">
    <path d="M 578.098359 371.113636 
L 597.855859 371.113636 
" clip-path="url(#p168424b78b)" style="fill: none; stroke: #393939; stroke-width: 1.5; stroke-linecap: round"/>
   </g>
   <g id="line2d_66">
    <path d="M 578.098359 212.326722 
L 597.855859 212.326722 
" clip-path="url(#p168424b78b)" style="fill: none; stroke: #393939; stroke-width: 1.5; stroke-linecap: round"/>
   </g>
   <g id="line2d_67">
    <path d="M 455.319609 275.128798 
L 494.834609 275.128798 
" clip-path="url(#p168424b78b)" style="fill: none; stroke: #393939; stroke-width: 1.5; stroke-linecap: round"/>
   </g>
   <g id="line2d_68">
    <path d="M 511.769609 268.035712 
L 551.284609 268.035712 
" clip-path="url(#p168424b78b)" style="fill: none; stroke: #393939; stroke-width: 1.5; stroke-linecap: round"/>
   </g>
   <g id="line2d_69">
    <path d="M 568.219609 341.613776 
L 607.734609 341.613776 
" clip-path="url(#p168424b78b)" style="fill: none; stroke: #393939; stroke-width: 1.5; stroke-linecap: round"/>
   </g>
   <g id="patch_27">
    <path d="M 446.852109 386.1 
L 446.852109 56.4 
" style="fill: none; stroke: #cccccc; stroke-width: 1.25; stroke-linejoin: miter; stroke-linecap: square"/>
   </g>
   <g id="patch_28">
    <path d="M 446.852109 386.1 
L 616.202109 386.1 
" style="fill: none; stroke: #cccccc; stroke-width: 1.25; stroke-linejoin: miter; stroke-linecap: square"/>
   </g>
   <g id="text_24">
    <!-- 10j -->
    <g style="fill: #262626" transform="translate(519.517734 50.4) scale(0.18 -0.18)">
     <use xlink:href="#ArialMT-31"/>
     <use xlink:href="#ArialMT-30" x="55.615234"/>
     <use xlink:href="#ArialMT-6a" x="111.230469"/>
    </g>
   </g>
  </g>
  <g id="text_25">
   <!-- Max speed -->
   <g style="fill: #262626" transform="translate(301.609609 21.515625) scale(0.2 -0.2)">
    <defs>
     <path id="ArialMT-4d" d="M 475 0 
L 475 4581 
L 1388 4581 
L 2472 1338 
Q 2622 884 2691 659 
Q 2769 909 2934 1394 
L 4031 4581 
L 4847 4581 
L 4847 0 
L 4263 0 
L 4263 3834 
L 2931 0 
L 2384 0 
L 1059 3900 
L 1059 0 
L 475 0 
z
" transform="scale(0.015625)"/>
     <path id="ArialMT-78" d="M 47 0 
L 1259 1725 
L 138 3319 
L 841 3319 
L 1350 2541 
Q 1494 2319 1581 2169 
Q 1719 2375 1834 2534 
L 2394 3319 
L 3066 3319 
L 1919 1756 
L 3153 0 
L 2463 0 
L 1781 1031 
L 1600 1309 
L 728 0 
L 47 0 
z
" transform="scale(0.015625)"/>
     <path id="ArialMT-73" d="M 197 991 
L 753 1078 
Q 800 744 1014 566 
Q 1228 388 1613 388 
Q 2000 388 2187 545 
Q 2375 703 2375 916 
Q 2375 1106 2209 1216 
Q 2094 1291 1634 1406 
Q 1016 1563 777 1677 
Q 538 1791 414 1992 
Q 291 2194 291 2438 
Q 291 2659 392 2848 
Q 494 3038 669 3163 
Q 800 3259 1026 3326 
Q 1253 3394 1513 3394 
Q 1903 3394 2198 3281 
Q 2494 3169 2634 2976 
Q 2775 2784 2828 2463 
L 2278 2388 
Q 2241 2644 2061 2787 
Q 1881 2931 1553 2931 
Q 1166 2931 1000 2803 
Q 834 2675 834 2503 
Q 834 2394 903 2306 
Q 972 2216 1119 2156 
Q 1203 2125 1616 2013 
Q 2213 1853 2448 1751 
Q 2684 1650 2818 1456 
Q 2953 1263 2953 975 
Q 2953 694 2789 445 
Q 2625 197 2315 61 
Q 2006 -75 1616 -75 
Q 969 -75 630 194 
Q 291 463 197 991 
z
" transform="scale(0.015625)"/>
     <path id="ArialMT-70" d="M 422 -1272 
L 422 3319 
L 934 3319 
L 934 2888 
Q 1116 3141 1344 3267 
Q 1572 3394 1897 3394 
Q 2322 3394 2647 3175 
Q 2972 2956 3137 2557 
Q 3303 2159 3303 1684 
Q 3303 1175 3120 767 
Q 2938 359 2589 142 
Q 2241 -75 1856 -75 
Q 1575 -75 1351 44 
Q 1128 163 984 344 
L 984 -1272 
L 422 -1272 
z
M 931 1641 
Q 931 1000 1190 694 
Q 1450 388 1819 388 
Q 2194 388 2461 705 
Q 2728 1022 2728 1688 
Q 2728 2322 2467 2637 
Q 2206 2953 1844 2953 
Q 1484 2953 1207 2617 
Q 931 2281 931 1641 
z
" transform="scale(0.015625)"/>
     <path id="ArialMT-65" d="M 2694 1069 
L 3275 997 
Q 3138 488 2766 206 
Q 2394 -75 1816 -75 
Q 1088 -75 661 373 
Q 234 822 234 1631 
Q 234 2469 665 2931 
Q 1097 3394 1784 3394 
Q 2450 3394 2872 2941 
Q 3294 2488 3294 1666 
Q 3294 1616 3291 1516 
L 816 1516 
Q 847 969 1125 678 
Q 1403 388 1819 388 
Q 2128 388 2347 550 
Q 2566 713 2694 1069 
z
M 847 1978 
L 2700 1978 
Q 2663 2397 2488 2606 
Q 2219 2931 1791 2931 
Q 1403 2931 1139 2672 
Q 875 2413 847 1978 
z
" transform="scale(0.015625)"/>
    </defs>
    <use xlink:href="#ArialMT-4d"/>
    <use xlink:href="#ArialMT-61" x="83.300781"/>
    <use xlink:href="#ArialMT-78" x="138.916016"/>
    <use xlink:href="#ArialMT-20" x="188.916016"/>
    <use xlink:href="#ArialMT-73" x="216.699219"/>
    <use xlink:href="#ArialMT-70" x="266.699219"/>
    <use xlink:href="#ArialMT-65" x="322.314453"/>
    <use xlink:href="#ArialMT-65" x="377.929688"/>
    <use xlink:href="#ArialMT-64" x="433.544922"/>
   </g>
  </g>
  <g id="text_26">
   <!-- Effector dose -->
   <g style="fill: #262626" transform="translate(214.442109 432.72) scale(0.18 -0.18)">
    <defs>
     <path id="ArialMT-45" d="M 506 0 
L 506 4581 
L 3819 4581 
L 3819 4041 
L 1113 4041 
L 1113 2638 
L 3647 2638 
L 3647 2100 
L 1113 2100 
L 1113 541 
L 3925 541 
L 3925 0 
L 506 0 
z
" transform="scale(0.015625)"/>
    </defs>
    <use xlink:href="#ArialMT-45"/>
    <use xlink:href="#ArialMT-66" x="66.699219"/>
    <use xlink:href="#ArialMT-66" x="92.732422"/>
    <use xlink:href="#ArialMT-65" x="120.515625"/>
    <use xlink:href="#ArialMT-63" x="176.130859"/>
    <use xlink:href="#ArialMT-74" x="226.130859"/>
    <use xlink:href="#ArialMT-6f" x="253.914062"/>
    <use xlink:href="#ArialMT-72" x="309.529297"/>
    <use xlink:href="#ArialMT-20" x="342.830078"/>
    <use xlink:href="#ArialMT-64" x="370.613281"/>
    <use xlink:href="#ArialMT-6f" x="426.228516"/>
    <use xlink:href="#ArialMT-73" x="481.84375"/>
    <use xlink:href="#ArialMT-65" x="531.84375"/>
   </g>
  </g>
 </g>
 <defs>
  <clipPath id="pce95562d17">
   <rect x="69.272109" y="56.4" width="169.35" height="329.7"/>
  </clipPath>
  <clipPath id="p776116d8e6">
   <rect x="258.062109" y="56.4" width="169.35" height="329.7"/>
  </clipPath>
  <clipPath id="p168424b78b">
   <rect x="446.852109" y="56.4" width="169.35" height="329.7"/>
  </clipPath>
 </defs>
</svg>
