<?xml version="1.0" encoding="utf-8" standalone="no"?>
<!DOCTYPE svg PUBLIC "-//W3C//DTD SVG 1.1//EN"
  "http://www.w3.org/Graphics/SVG/1.1/DTD/svg11.dtd">
<svg xmlns:xlink="http://www.w3.org/1999/xlink" width="623.406562pt" height="438.351328pt" viewBox="0 0 623.406562 438.351328" xmlns="http://www.w3.org/2000/svg" version="1.1">
 <metadata>
  <rdf:RDF xmlns:dc="http://purl.org/dc/elements/1.1/" xmlns:cc="http://creativecommons.org/ns#" xmlns:rdf="http://www.w3.org/1999/02/22-rdf-syntax-ns#">
   <cc:Work>
    <dc:type rdf:resource="http://purl.org/dc/dcmitype/StillImage"/>
    <dc:date>2022-12-04T01:50:17.557266</dc:date>
    <dc:format>image/svg+xml</dc:format>
    <dc:creator>
     <cc:Agent>
      <dc:title>Matplotlib v3.6.0, https://matplotlib.org/</dc:title>
     </cc:Agent>
    </dc:creator>
   </cc:Work>
  </rdf:RDF>
 </metadata>
 <defs>
  <style type="text/css">*{stroke-linejoin: round; stroke-linecap: butt}</style>
 </defs>
 <g id="figure_1">
  <g id="patch_1">
   <path d="M 0 438.351328 
L 623.406562 438.351328 
L 623.406562 0 
L 0 0 
z
" style="fill: #ffffff"/>
  </g>
  <g id="axes_1">
   <g id="patch_2">
    <path d="M 60.096563 386.1 
L 232.506563 386.1 
L 232.506563 56.4 
L 60.096563 56.4 
z
" style="fill: #ffffff"/>
   </g>
   <g id="matplotlib.axis_1">
    <g id="xtick_1">
     <g id="text_1">
      <!-- 0 -->
      <g style="fill: #262626" transform="translate(77.060039 407.410391) scale(0.165 -0.165)">
       <defs>
        <path id="ArialMT-30" d="M 266 2259 
Q 266 3072 433 3567 
Q 600 4063 929 4331 
Q 1259 4600 1759 4600 
Q 2128 4600 2406 4451 
Q 2684 4303 2865 4023 
Q 3047 3744 3150 3342 
Q 3253 2941 3253 2259 
Q 3253 1453 3087 958 
Q 2922 463 2592 192 
Q 2263 -78 1759 -78 
Q 1097 -78 719 397 
Q 266 969 266 2259 
z
M 844 2259 
Q 844 1131 1108 757 
Q 1372 384 1759 384 
Q 2147 384 2411 759 
Q 2675 1134 2675 2259 
Q 2675 3391 2411 3762 
Q 2147 4134 1753 4134 
Q 1366 4134 1134 3806 
Q 844 3388 844 2259 
z
" transform="scale(0.015625)"/>
       </defs>
       <use xlink:href="#ArialMT-30"/>
      </g>
     </g>
    </g>
    <g id="xtick_2">
     <g id="text_2">
      <!-- + -->
      <g style="fill: #262626" transform="translate(119.931797 407.410391) scale(0.165 -0.165)">
       <defs>
        <path id="ArialMT-2b" d="M 1603 741 
L 1603 1997 
L 356 1997 
L 356 2522 
L 1603 2522 
L 1603 3769 
L 2134 3769 
L 2134 2522 
L 3381 2522 
L 3381 1997 
L 2134 1997 
L 2134 741 
L 1603 741 
z
" transform="scale(0.015625)"/>
       </defs>
       <use xlink:href="#ArialMT-2b"/>
      </g>
     </g>
    </g>
    <g id="xtick_3">
     <g id="text_3">
      <!-- ++ -->
      <g style="fill: #262626" transform="translate(158.215781 407.410391) scale(0.165 -0.165)">
       <use xlink:href="#ArialMT-2b"/>
       <use xlink:href="#ArialMT-2b" x="58.398438"/>
      </g>
     </g>
    </g>
    <g id="xtick_4">
     <g id="text_4">
      <!-- +++ -->
      <g style="fill: #262626" transform="translate(196.499766 407.410391) scale(0.165 -0.165)">
       <use xlink:href="#ArialMT-2b"/>
       <use xlink:href="#ArialMT-2b" x="58.398438"/>
       <use xlink:href="#ArialMT-2b" x="116.796875"/>
      </g>
     </g>
    </g>
    <g id="text_5">
     <!--   -->
     <g style="fill: #262626" transform="translate(143.80125 427.573828) scale(0.18 -0.18)">
      <defs>
       <path id="ArialMT-20" transform="scale(0.015625)"/>
      </defs>
      <use xlink:href="#ArialMT-20"/>
     </g>
    </g>
   </g>
   <g id="matplotlib.axis_2">
    <g id="ytick_1">
     <g id="line2d_1">
      <path d="M 60.096563 372.180819 
L 232.506563 372.180819 
" clip-path="url(#p7e530163e8)" style="fill: none; stroke: #cccccc; stroke-linecap: round"/>
     </g>
     <g id="text_6">
      <!-- 0.6 -->
      <g style="fill: #262626" transform="translate(27.661563 378.086015) scale(0.165 -0.165)">
       <defs>
        <path id="ArialMT-2e" d="M 581 0 
L 581 641 
L 1222 641 
L 1222 0 
L 581 0 
z
" transform="scale(0.015625)"/>
        <path id="ArialMT-36" d="M 3184 3459 
L 2625 3416 
Q 2550 3747 2413 3897 
Q 2184 4138 1850 4138 
Q 1581 4138 1378 3988 
Q 1113 3794 959 3422 
Q 806 3050 800 2363 
Q 1003 2672 1297 2822 
Q 1591 2972 1913 2972 
Q 2475 2972 2870 2558 
Q 3266 2144 3266 1488 
Q 3266 1056 3080 686 
Q 2894 316 2569 119 
Q 2244 -78 1831 -78 
Q 1128 -78 684 439 
Q 241 956 241 2144 
Q 241 3472 731 4075 
Q 1159 4600 1884 4600 
Q 2425 4600 2770 4297 
Q 3116 3994 3184 3459 
z
M 888 1484 
Q 888 1194 1011 928 
Q 1134 663 1356 523 
Q 1578 384 1822 384 
Q 2178 384 2434 671 
Q 2691 959 2691 1453 
Q 2691 1928 2437 2201 
Q 2184 2475 1800 2475 
Q 1419 2475 1153 2201 
Q 888 1928 888 1484 
z
" transform="scale(0.015625)"/>
       </defs>
       <use xlink:href="#ArialMT-30"/>
       <use xlink:href="#ArialMT-2e" x="55.615234"/>
       <use xlink:href="#ArialMT-36" x="83.398438"/>
      </g>
     </g>
    </g>
    <g id="ytick_2">
     <g id="line2d_2">
      <path d="M 60.096563 330.623691 
L 232.506563 330.623691 
" clip-path="url(#p7e530163e8)" style="fill: none; stroke: #cccccc; stroke-linecap: round"/>
     </g>
     <g id="text_7">
      <!-- 0.8 -->
      <g style="fill: #262626" transform="translate(27.661563 336.528886) scale(0.165 -0.165)">
       <defs>
        <path id="ArialMT-38" d="M 1131 2484 
Q 781 2613 612 2850 
Q 444 3088 444 3419 
Q 444 3919 803 4259 
Q 1163 4600 1759 4600 
Q 2359 4600 2725 4251 
Q 3091 3903 3091 3403 
Q 3091 3084 2923 2848 
Q 2756 2613 2416 2484 
Q 2838 2347 3058 2040 
Q 3278 1734 3278 1309 
Q 3278 722 2862 322 
Q 2447 -78 1769 -78 
Q 1091 -78 675 323 
Q 259 725 259 1325 
Q 259 1772 486 2073 
Q 713 2375 1131 2484 
z
M 1019 3438 
Q 1019 3113 1228 2906 
Q 1438 2700 1772 2700 
Q 2097 2700 2305 2904 
Q 2513 3109 2513 3406 
Q 2513 3716 2298 3927 
Q 2084 4138 1766 4138 
Q 1444 4138 1231 3931 
Q 1019 3725 1019 3438 
z
M 838 1322 
Q 838 1081 952 856 
Q 1066 631 1291 507 
Q 1516 384 1775 384 
Q 2178 384 2440 643 
Q 2703 903 2703 1303 
Q 2703 1709 2433 1975 
Q 2163 2241 1756 2241 
Q 1359 2241 1098 1978 
Q 838 1716 838 1322 
z
" transform="scale(0.015625)"/>
       </defs>
       <use xlink:href="#ArialMT-30"/>
       <use xlink:href="#ArialMT-2e" x="55.615234"/>
       <use xlink:href="#ArialMT-38" x="83.398438"/>
      </g>
     </g>
    </g>
    <g id="ytick_3">
     <g id="line2d_3">
      <path d="M 60.096563 289.066562 
L 232.506563 289.066562 
" clip-path="url(#p7e530163e8)" style="fill: none; stroke: #cccccc; stroke-linecap: round"/>
     </g>
     <g id="text_8">
      <!-- 1.0 -->
      <g style="fill: #262626" transform="translate(27.661563 294.971757) scale(0.165 -0.165)">
       <defs>
        <path id="ArialMT-31" d="M 2384 0 
L 1822 0 
L 1822 3584 
Q 1619 3391 1289 3197 
Q 959 3003 697 2906 
L 697 3450 
Q 1169 3672 1522 3987 
Q 1875 4303 2022 4600 
L 2384 4600 
L 2384 0 
z
" transform="scale(0.015625)"/>
       </defs>
       <use xlink:href="#ArialMT-31"/>
       <use xlink:href="#ArialMT-2e" x="55.615234"/>
       <use xlink:href="#ArialMT-30" x="83.398438"/>
      </g>
     </g>
    </g>
    <g id="ytick_4">
     <g id="line2d_4">
      <path d="M 60.096563 247.509433 
L 232.506563 247.509433 
" clip-path="url(#p7e530163e8)" style="fill: none; stroke: #cccccc; stroke-linecap: round"/>
     </g>
     <g id="text_9">
      <!-- 1.2 -->
      <g style="fill: #262626" transform="translate(27.661563 253.414628) scale(0.165 -0.165)">
       <defs>
        <path id="ArialMT-32" d="M 3222 541 
L 3222 0 
L 194 0 
Q 188 203 259 391 
Q 375 700 629 1000 
Q 884 1300 1366 1694 
Q 2113 2306 2375 2664 
Q 2638 3022 2638 3341 
Q 2638 3675 2398 3904 
Q 2159 4134 1775 4134 
Q 1369 4134 1125 3890 
Q 881 3647 878 3216 
L 300 3275 
Q 359 3922 746 4261 
Q 1134 4600 1788 4600 
Q 2447 4600 2831 4234 
Q 3216 3869 3216 3328 
Q 3216 3053 3103 2787 
Q 2991 2522 2730 2228 
Q 2469 1934 1863 1422 
Q 1356 997 1212 845 
Q 1069 694 975 541 
L 3222 541 
z
" transform="scale(0.015625)"/>
       </defs>
       <use xlink:href="#ArialMT-31"/>
       <use xlink:href="#ArialMT-2e" x="55.615234"/>
       <use xlink:href="#ArialMT-32" x="83.398438"/>
      </g>
     </g>
    </g>
    <g id="ytick_5">
     <g id="line2d_5">
      <path d="M 60.096563 205.952304 
L 232.506563 205.952304 
" clip-path="url(#p7e530163e8)" style="fill: none; stroke: #cccccc; stroke-linecap: round"/>
     </g>
     <g id="text_10">
      <!-- 1.4 -->
      <g style="fill: #262626" transform="translate(27.661563 211.8575) scale(0.165 -0.165)">
       <defs>
        <path id="ArialMT-34" d="M 2069 0 
L 2069 1097 
L 81 1097 
L 81 1613 
L 2172 4581 
L 2631 4581 
L 2631 1613 
L 3250 1613 
L 3250 1097 
L 2631 1097 
L 2631 0 
L 2069 0 
z
M 2069 1613 
L 2069 3678 
L 634 1613 
L 2069 1613 
z
" transform="scale(0.015625)"/>
       </defs>
       <use xlink:href="#ArialMT-31"/>
       <use xlink:href="#ArialMT-2e" x="55.615234"/>
       <use xlink:href="#ArialMT-34" x="83.398438"/>
      </g>
     </g>
    </g>
    <g id="ytick_6">
     <g id="line2d_6">
      <path d="M 60.096563 164.395176 
L 232.506563 164.395176 
" clip-path="url(#p7e530163e8)" style="fill: none; stroke: #cccccc; stroke-linecap: round"/>
     </g>
     <g id="text_11">
      <!-- 1.6 -->
      <g style="fill: #262626" transform="translate(27.661563 170.300371) scale(0.165 -0.165)">
       <use xlink:href="#ArialMT-31"/>
       <use xlink:href="#ArialMT-2e" x="55.615234"/>
       <use xlink:href="#ArialMT-36" x="83.398438"/>
      </g>
     </g>
    </g>
    <g id="ytick_7">
     <g id="line2d_7">
      <path d="M 60.096563 122.838047 
L 232.506563 122.838047 
" clip-path="url(#p7e530163e8)" style="fill: none; stroke: #cccccc; stroke-linecap: round"/>
     </g>
     <g id="text_12">
      <!-- 1.8 -->
      <g style="fill: #262626" transform="translate(27.661563 128.743242) scale(0.165 -0.165)">
       <use xlink:href="#ArialMT-31"/>
       <use xlink:href="#ArialMT-2e" x="55.615234"/>
       <use xlink:href="#ArialMT-38" x="83.398438"/>
      </g>
     </g>
    </g>
    <g id="ytick_8">
     <g id="line2d_8">
      <path d="M 60.096563 81.280918 
L 232.506563 81.280918 
" clip-path="url(#p7e530163e8)" style="fill: none; stroke: #cccccc; stroke-linecap: round"/>
     </g>
     <g id="text_13">
      <!-- 2.0 -->
      <g style="fill: #262626" transform="translate(27.661563 87.186113) scale(0.165 -0.165)">
       <use xlink:href="#ArialMT-32"/>
       <use xlink:href="#ArialMT-2e" x="55.615234"/>
       <use xlink:href="#ArialMT-30" x="83.398438"/>
      </g>
     </g>
    </g>
    <g id="text_14">
     <!-- Fold of control -->
     <g style="fill: #262626" transform="translate(20.084062 278.273437) rotate(-90) scale(0.18 -0.18)">
      <defs>
       <path id="ArialMT-46" d="M 525 0 
L 525 4581 
L 3616 4581 
L 3616 4041 
L 1131 4041 
L 1131 2622 
L 3281 2622 
L 3281 2081 
L 1131 2081 
L 1131 0 
L 525 0 
z
" transform="scale(0.015625)"/>
       <path id="ArialMT-6f" d="M 213 1659 
Q 213 2581 725 3025 
Q 1153 3394 1769 3394 
Q 2453 3394 2887 2945 
Q 3322 2497 3322 1706 
Q 3322 1066 3130 698 
Q 2938 331 2570 128 
Q 2203 -75 1769 -75 
Q 1072 -75 642 372 
Q 213 819 213 1659 
z
M 791 1659 
Q 791 1022 1069 705 
Q 1347 388 1769 388 
Q 2188 388 2466 706 
Q 2744 1025 2744 1678 
Q 2744 2294 2464 2611 
Q 2184 2928 1769 2928 
Q 1347 2928 1069 2612 
Q 791 2297 791 1659 
z
" transform="scale(0.015625)"/>
       <path id="ArialMT-6c" d="M 409 0 
L 409 4581 
L 972 4581 
L 972 0 
L 409 0 
z
" transform="scale(0.015625)"/>
       <path id="ArialMT-64" d="M 2575 0 
L 2575 419 
Q 2259 -75 1647 -75 
Q 1250 -75 917 144 
Q 584 363 401 755 
Q 219 1147 219 1656 
Q 219 2153 384 2558 
Q 550 2963 881 3178 
Q 1213 3394 1622 3394 
Q 1922 3394 2156 3267 
Q 2391 3141 2538 2938 
L 2538 4581 
L 3097 4581 
L 3097 0 
L 2575 0 
z
M 797 1656 
Q 797 1019 1065 703 
Q 1334 388 1700 388 
Q 2069 388 2326 689 
Q 2584 991 2584 1609 
Q 2584 2291 2321 2609 
Q 2059 2928 1675 2928 
Q 1300 2928 1048 2622 
Q 797 2316 797 1656 
z
" transform="scale(0.015625)"/>
       <path id="ArialMT-66" d="M 556 0 
L 556 2881 
L 59 2881 
L 59 3319 
L 556 3319 
L 556 3672 
Q 556 4006 616 4169 
Q 697 4388 901 4523 
Q 1106 4659 1475 4659 
Q 1713 4659 2000 4603 
L 1916 4113 
Q 1741 4144 1584 4144 
Q 1328 4144 1222 4034 
Q 1116 3925 1116 3625 
L 1116 3319 
L 1763 3319 
L 1763 2881 
L 1116 2881 
L 1116 0 
L 556 0 
z
" transform="scale(0.015625)"/>
       <path id="ArialMT-63" d="M 2588 1216 
L 3141 1144 
Q 3050 572 2676 248 
Q 2303 -75 1759 -75 
Q 1078 -75 664 370 
Q 250 816 250 1647 
Q 250 2184 428 2587 
Q 606 2991 970 3192 
Q 1334 3394 1763 3394 
Q 2303 3394 2647 3120 
Q 2991 2847 3088 2344 
L 2541 2259 
Q 2463 2594 2264 2762 
Q 2066 2931 1784 2931 
Q 1359 2931 1093 2626 
Q 828 2322 828 1663 
Q 828 994 1084 691 
Q 1341 388 1753 388 
Q 2084 388 2306 591 
Q 2528 794 2588 1216 
z
" transform="scale(0.015625)"/>
       <path id="ArialMT-6e" d="M 422 0 
L 422 3319 
L 928 3319 
L 928 2847 
Q 1294 3394 1984 3394 
Q 2284 3394 2536 3286 
Q 2788 3178 2913 3003 
Q 3038 2828 3088 2588 
Q 3119 2431 3119 2041 
L 3119 0 
L 2556 0 
L 2556 2019 
Q 2556 2363 2490 2533 
Q 2425 2703 2258 2804 
Q 2091 2906 1866 2906 
Q 1506 2906 1245 2678 
Q 984 2450 984 1813 
L 984 0 
L 422 0 
z
" transform="scale(0.015625)"/>
       <path id="ArialMT-74" d="M 1650 503 
L 1731 6 
Q 1494 -44 1306 -44 
Q 1000 -44 831 53 
Q 663 150 594 308 
Q 525 466 525 972 
L 525 2881 
L 113 2881 
L 113 3319 
L 525 3319 
L 525 4141 
L 1084 4478 
L 1084 3319 
L 1650 3319 
L 1650 2881 
L 1084 2881 
L 1084 941 
Q 1084 700 1114 631 
Q 1144 563 1211 522 
Q 1278 481 1403 481 
Q 1497 481 1650 503 
z
" transform="scale(0.015625)"/>
       <path id="ArialMT-72" d="M 416 0 
L 416 3319 
L 922 3319 
L 922 2816 
Q 1116 3169 1280 3281 
Q 1444 3394 1641 3394 
Q 1925 3394 2219 3213 
L 2025 2691 
Q 1819 2813 1613 2813 
Q 1428 2813 1281 2702 
Q 1134 2591 1072 2394 
Q 978 2094 978 1738 
L 978 0 
L 416 0 
z
" transform="scale(0.015625)"/>
      </defs>
      <use xlink:href="#ArialMT-46"/>
      <use xlink:href="#ArialMT-6f" x="61.083984"/>
      <use xlink:href="#ArialMT-6c" x="116.699219"/>
      <use xlink:href="#ArialMT-64" x="138.916016"/>
      <use xlink:href="#ArialMT-20" x="194.53125"/>
      <use xlink:href="#ArialMT-6f" x="222.314453"/>
      <use xlink:href="#ArialMT-66" x="277.929688"/>
      <use xlink:href="#ArialMT-20" x="305.712891"/>
      <use xlink:href="#ArialMT-63" x="333.496094"/>
      <use xlink:href="#ArialMT-6f" x="383.496094"/>
      <use xlink:href="#ArialMT-6e" x="439.111328"/>
      <use xlink:href="#ArialMT-74" x="494.726562"/>
      <use xlink:href="#ArialMT-72" x="522.509766"/>
      <use xlink:href="#ArialMT-6f" x="555.810547"/>
      <use xlink:href="#ArialMT-6c" x="611.425781"/>
     </g>
    </g>
   </g>
   <g id="patch_3">
    <path d="M 66.561937 318.748819 
L 96.733688 318.748819 
L 96.733688 269.760789 
L 66.561937 269.760789 
L 66.561937 318.748819 
z
" clip-path="url(#p7e530163e8)" style="fill: #3c6682; stroke: #393939; stroke-width: 1.5; stroke-linejoin: miter"/>
   </g>
   <g id="patch_4">
    <path d="M 109.664438 324.232407 
L 139.836187 324.232407 
L 139.836187 249.500064 
L 109.664438 249.500064 
L 109.664438 324.232407 
z
" clip-path="url(#p7e530163e8)" style="fill: #3c6682; stroke: #393939; stroke-width: 1.5; stroke-linejoin: miter"/>
   </g>
   <g id="patch_5">
    <path d="M 152.766937 307.417383 
L 182.938688 307.417383 
L 182.938688 243.425785 
L 152.766937 243.425785 
L 152.766937 307.417383 
z
" clip-path="url(#p7e530163e8)" style="fill: #3c6682; stroke: #393939; stroke-width: 1.5; stroke-linejoin: miter"/>
   </g>
   <g id="patch_6">
    <path d="M 81.647813 496.852206 
L 81.647813 496.852206 
L 81.647813 496.852206 
L 81.647813 496.852206 
z
" clip-path="url(#p7e530163e8)" style="fill: #3c6682; stroke: #393939; stroke-width: 0.75; stroke-linejoin: miter"/>
   </g>
   <g id="patch_7">
    <path d="M 81.647813 496.852206 
L 81.647813 496.852206 
L 81.647813 496.852206 
L 81.647813 496.852206 
z
" clip-path="url(#p7e530163e8)" style="fill: #45a778; stroke: #393939; stroke-width: 0.75; stroke-linejoin: miter"/>
   </g>
   <g id="patch_8">
    <path d="M 81.647813 496.852206 
L 81.647813 496.852206 
L 81.647813 496.852206 
L 81.647813 496.852206 
z
" clip-path="url(#p7e530163e8)" style="fill: #3c6682; stroke: #393939; stroke-width: 0.75; stroke-linejoin: miter"/>
   </g>
   <g id="line2d_9">
    <path d="M 81.647813 318.748819 
L 81.647813 352.093364 
" clip-path="url(#p7e530163e8)" style="fill: none; stroke: #393939; stroke-width: 1.5; stroke-linecap: round"/>
   </g>
   <g id="line2d_10">
    <path d="M 81.647813 269.760789 
L 81.647813 244.154304 
" clip-path="url(#p7e530163e8)" style="fill: none; stroke: #393939; stroke-width: 1.5; stroke-linecap: round"/>
   </g>
   <g id="line2d_11">
    <path d="M 74.104875 352.093364 
L 89.19075 352.093364 
" clip-path="url(#p7e530163e8)" style="fill: none; stroke: #393939; stroke-width: 1.5; stroke-linecap: round"/>
   </g>
   <g id="line2d_12">
    <path d="M 74.104875 244.154304 
L 89.19075 244.154304 
" clip-path="url(#p7e530163e8)" style="fill: none; stroke: #393939; stroke-width: 1.5; stroke-linecap: round"/>
   </g>
   <g id="line2d_13">
    <path d="M 124.750313 324.232407 
L 124.750313 344.217475 
" clip-path="url(#p7e530163e8)" style="fill: none; stroke: #393939; stroke-width: 1.5; stroke-linecap: round"/>
   </g>
   <g id="line2d_14">
    <path d="M 124.750313 249.500064 
L 124.750313 207.255764 
" clip-path="url(#p7e530163e8)" style="fill: none; stroke: #393939; stroke-width: 1.5; stroke-linecap: round"/>
   </g>
   <g id="line2d_15">
    <path d="M 117.207375 344.217475 
L 132.29325 344.217475 
" clip-path="url(#p7e530163e8)" style="fill: none; stroke: #393939; stroke-width: 1.5; stroke-linecap: round"/>
   </g>
   <g id="line2d_16">
    <path d="M 117.207375 207.255764 
L 132.29325 207.255764 
" clip-path="url(#p7e530163e8)" style="fill: none; stroke: #393939; stroke-width: 1.5; stroke-linecap: round"/>
   </g>
   <g id="line2d_17">
    <path d="M 167.852812 307.417383 
L 167.852812 371.113636 
" clip-path="url(#p7e530163e8)" style="fill: none; stroke: #393939; stroke-width: 1.5; stroke-linecap: round"/>
   </g>
   <g id="line2d_18">
    <path d="M 167.852812 243.425785 
L 167.852812 182.052919 
" clip-path="url(#p7e530163e8)" style="fill: none; stroke: #393939; stroke-width: 1.5; stroke-linecap: round"/>
   </g>
   <g id="line2d_19">
    <path d="M 160.309875 371.113636 
L 175.39575 371.113636 
" clip-path="url(#p7e530163e8)" style="fill: none; stroke: #393939; stroke-width: 1.5; stroke-linecap: round"/>
   </g>
   <g id="line2d_20">
    <path d="M 160.309875 182.052919 
L 175.39575 182.052919 
" clip-path="url(#p7e530163e8)" style="fill: none; stroke: #393939; stroke-width: 1.5; stroke-linecap: round"/>
   </g>
   <g id="line2d_21">
    <path d="M 66.561937 289.066562 
L 96.733688 289.066562 
" clip-path="url(#p7e530163e8)" style="fill: none; stroke: #393939; stroke-width: 1.5; stroke-linecap: round"/>
   </g>
   <g id="line2d_22">
    <path d="M 109.664438 278.749147 
L 139.836187 278.749147 
" clip-path="url(#p7e530163e8)" style="fill: none; stroke: #393939; stroke-width: 1.5; stroke-linecap: round"/>
   </g>
   <g id="line2d_23">
    <path d="M 152.766937 275.618481 
L 182.938688 275.618481 
" clip-path="url(#p7e530163e8)" style="fill: none; stroke: #393939; stroke-width: 1.5; stroke-linecap: round"/>
   </g>
   <g id="patch_9">
    <path d="M 60.096563 386.1 
L 60.096563 56.4 
" style="fill: none; stroke: #cccccc; stroke-width: 1.25; stroke-linejoin: miter; stroke-linecap: square"/>
   </g>
   <g id="patch_10">
    <path d="M 60.096563 386.1 
L 232.506562 386.1 
" style="fill: none; stroke: #cccccc; stroke-width: 1.25; stroke-linejoin: miter; stroke-linecap: square"/>
   </g>
   <g id="text_15">
    <!-- 9j -->
    <g style="fill: #262626" transform="translate(139.297031 50.4) scale(0.18 -0.18)">
     <defs>
      <path id="ArialMT-39" d="M 350 1059 
L 891 1109 
Q 959 728 1153 556 
Q 1347 384 1650 384 
Q 1909 384 2104 503 
Q 2300 622 2425 820 
Q 2550 1019 2634 1356 
Q 2719 1694 2719 2044 
Q 2719 2081 2716 2156 
Q 2547 1888 2255 1720 
Q 1963 1553 1622 1553 
Q 1053 1553 659 1965 
Q 266 2378 266 3053 
Q 266 3750 677 4175 
Q 1088 4600 1706 4600 
Q 2153 4600 2523 4359 
Q 2894 4119 3086 3673 
Q 3278 3228 3278 2384 
Q 3278 1506 3087 986 
Q 2897 466 2520 194 
Q 2144 -78 1638 -78 
Q 1100 -78 759 220 
Q 419 519 350 1059 
z
M 2653 3081 
Q 2653 3566 2395 3850 
Q 2138 4134 1775 4134 
Q 1400 4134 1122 3828 
Q 844 3522 844 3034 
Q 844 2597 1108 2323 
Q 1372 2050 1759 2050 
Q 2150 2050 2401 2323 
Q 2653 2597 2653 3081 
z
" transform="scale(0.015625)"/>
      <path id="ArialMT-6a" d="M 419 3928 
L 419 4581 
L 981 4581 
L 981 3928 
L 419 3928 
z
M -294 -1288 
L -188 -809 
Q -19 -853 78 -853 
Q 250 -853 334 -739 
Q 419 -625 419 -169 
L 419 3319 
L 981 3319 
L 981 -181 
Q 981 -794 822 -1034 
Q 619 -1347 147 -1347 
Q -81 -1347 -294 -1288 
z
" transform="scale(0.015625)"/>
     </defs>
     <use xlink:href="#ArialMT-39"/>
     <use xlink:href="#ArialMT-6a" x="55.615234"/>
    </g>
   </g>
  </g>
  <g id="axes_2">
   <g id="patch_11">
    <path d="M 251.946563 386.1 
L 424.356562 386.1 
L 424.356562 56.4 
L 251.946563 56.4 
z
" style="fill: #ffffff"/>
   </g>
   <g id="matplotlib.axis_3">
    <g id="xtick_5">
     <g id="text_16">
      <!-- 0 -->
      <g style="fill: #262626" transform="translate(268.910039 407.410391) scale(0.165 -0.165)">
       <use xlink:href="#ArialMT-30"/>
      </g>
     </g>
    </g>
    <g id="xtick_6">
     <g id="text_17">
      <!-- + -->
      <g style="fill: #262626" transform="translate(311.781797 407.410391) scale(0.165 -0.165)">
       <use xlink:href="#ArialMT-2b"/>
      </g>
     </g>
    </g>
    <g id="xtick_7">
     <g id="text_18">
      <!-- ++ -->
      <g style="fill: #262626" transform="translate(350.065781 407.410391) scale(0.165 -0.165)">
       <use xlink:href="#ArialMT-2b"/>
       <use xlink:href="#ArialMT-2b" x="58.398438"/>
      </g>
     </g>
    </g>
    <g id="xtick_8">
     <g id="text_19">
      <!-- +++ -->
      <g style="fill: #262626" transform="translate(388.349766 407.410391) scale(0.165 -0.165)">
       <use xlink:href="#ArialMT-2b"/>
       <use xlink:href="#ArialMT-2b" x="58.398438"/>
       <use xlink:href="#ArialMT-2b" x="116.796875"/>
      </g>
     </g>
    </g>
    <g id="text_20">
     <!--   -->
     <g style="fill: #262626" transform="translate(335.65125 427.573828) scale(0.18 -0.18)">
      <use xlink:href="#ArialMT-20"/>
     </g>
    </g>
   </g>
   <g id="matplotlib.axis_4">
    <g id="ytick_9">
     <g id="line2d_24">
      <path d="M 251.946563 372.180819 
L 424.356562 372.180819 
" clip-path="url(#pb5a0dfd1c3)" style="fill: none; stroke: #cccccc; stroke-linecap: round"/>
     </g>
    </g>
    <g id="ytick_10">
     <g id="line2d_25">
      <path d="M 251.946563 330.623691 
L 424.356562 330.623691 
" clip-path="url(#pb5a0dfd1c3)" style="fill: none; stroke: #cccccc; stroke-linecap: round"/>
     </g>
    </g>
    <g id="ytick_11">
     <g id="line2d_26">
      <path d="M 251.946563 289.066562 
L 424.356562 289.066562 
" clip-path="url(#pb5a0dfd1c3)" style="fill: none; stroke: #cccccc; stroke-linecap: round"/>
     </g>
    </g>
    <g id="ytick_12">
     <g id="line2d_27">
      <path d="M 251.946563 247.509433 
L 424.356562 247.509433 
" clip-path="url(#pb5a0dfd1c3)" style="fill: none; stroke: #cccccc; stroke-linecap: round"/>
     </g>
    </g>
    <g id="ytick_13">
     <g id="line2d_28">
      <path d="M 251.946563 205.952304 
L 424.356562 205.952304 
" clip-path="url(#pb5a0dfd1c3)" style="fill: none; stroke: #cccccc; stroke-linecap: round"/>
     </g>
    </g>
    <g id="ytick_14">
     <g id="line2d_29">
      <path d="M 251.946563 164.395176 
L 424.356562 164.395176 
" clip-path="url(#pb5a0dfd1c3)" style="fill: none; stroke: #cccccc; stroke-linecap: round"/>
     </g>
    </g>
    <g id="ytick_15">
     <g id="line2d_30">
      <path d="M 251.946563 122.838047 
L 424.356562 122.838047 
" clip-path="url(#pb5a0dfd1c3)" style="fill: none; stroke: #cccccc; stroke-linecap: round"/>
     </g>
    </g>
    <g id="ytick_16">
     <g id="line2d_31">
      <path d="M 251.946563 81.280918 
L 424.356562 81.280918 
" clip-path="url(#pb5a0dfd1c3)" style="fill: none; stroke: #cccccc; stroke-linecap: round"/>
     </g>
    </g>
   </g>
   <g id="patch_12">
    <path d="M 258.411938 318.748819 
L 288.583688 318.748819 
L 288.583688 269.760789 
L 258.411938 269.760789 
L 258.411938 318.748819 
z
" clip-path="url(#pb5a0dfd1c3)" style="fill: #45a778; stroke: #393939; stroke-width: 1.5; stroke-linejoin: miter"/>
   </g>
   <g id="patch_13">
    <path d="M 301.514438 324.232407 
L 331.686188 324.232407 
L 331.686188 249.500064 
L 301.514438 249.500064 
L 301.514438 324.232407 
z
" clip-path="url(#pb5a0dfd1c3)" style="fill: #45a778; stroke: #393939; stroke-width: 1.5; stroke-linejoin: miter"/>
   </g>
   <g id="patch_14">
    <path d="M 344.616938 307.417383 
L 374.788688 307.417383 
L 374.788688 243.425785 
L 344.616938 243.425785 
L 344.616938 307.417383 
z
" clip-path="url(#pb5a0dfd1c3)" style="fill: #45a778; stroke: #393939; stroke-width: 1.5; stroke-linejoin: miter"/>
   </g>
   <g id="patch_15">
    <path d="M 387.719438 307.417383 
L 417.891188 307.417383 
L 417.891188 243.425785 
L 387.719438 243.425785 
L 387.719438 307.417383 
z
" clip-path="url(#pb5a0dfd1c3)" style="fill: #45a778; stroke: #393939; stroke-width: 1.5; stroke-linejoin: miter"/>
   </g>
   <g id="patch_16">
    <path d="M 273.497813 496.852206 
L 273.497813 496.852206 
L 273.497813 496.852206 
L 273.497813 496.852206 
z
" clip-path="url(#pb5a0dfd1c3)" style="fill: #3c6682; stroke: #393939; stroke-width: 0.75; stroke-linejoin: miter"/>
   </g>
   <g id="patch_17">
    <path d="M 273.497813 496.852206 
L 273.497813 496.852206 
L 273.497813 496.852206 
L 273.497813 496.852206 
z
" clip-path="url(#pb5a0dfd1c3)" style="fill: #45a778; stroke: #393939; stroke-width: 0.75; stroke-linejoin: miter"/>
   </g>
   <g id="patch_18">
    <path d="M 273.497813 496.852206 
L 273.497813 496.852206 
L 273.497813 496.852206 
L 273.497813 496.852206 
z
" clip-path="url(#pb5a0dfd1c3)" style="fill: #3c6682; stroke: #393939; stroke-width: 0.75; stroke-linejoin: miter"/>
   </g>
   <g id="line2d_32">
    <path d="M 273.497813 318.748819 
L 273.497813 352.093364 
" clip-path="url(#pb5a0dfd1c3)" style="fill: none; stroke: #393939; stroke-width: 1.5; stroke-linecap: round"/>
   </g>
   <g id="line2d_33">
    <path d="M 273.497813 269.760789 
L 273.497813 244.154304 
" clip-path="url(#pb5a0dfd1c3)" style="fill: none; stroke: #393939; stroke-width: 1.5; stroke-linecap: round"/>
   </g>
   <g id="line2d_34">
    <path d="M 265.954875 352.093364 
L 281.04075 352.093364 
" clip-path="url(#pb5a0dfd1c3)" style="fill: none; stroke: #393939; stroke-width: 1.5; stroke-linecap: round"/>
   </g>
   <g id="line2d_35">
    <path d="M 265.954875 244.154304 
L 281.04075 244.154304 
" clip-path="url(#pb5a0dfd1c3)" style="fill: none; stroke: #393939; stroke-width: 1.5; stroke-linecap: round"/>
   </g>
   <g id="line2d_36">
    <path d="M 316.600313 324.232407 
L 316.600313 344.217475 
" clip-path="url(#pb5a0dfd1c3)" style="fill: none; stroke: #393939; stroke-width: 1.5; stroke-linecap: round"/>
   </g>
   <g id="line2d_37">
    <path d="M 316.600313 249.500064 
L 316.600313 207.255764 
" clip-path="url(#pb5a0dfd1c3)" style="fill: none; stroke: #393939; stroke-width: 1.5; stroke-linecap: round"/>
   </g>
   <g id="line2d_38">
    <path d="M 309.057375 344.217475 
L 324.14325 344.217475 
" clip-path="url(#pb5a0dfd1c3)" style="fill: none; stroke: #393939; stroke-width: 1.5; stroke-linecap: round"/>
   </g>
   <g id="line2d_39">
    <path d="M 309.057375 207.255764 
L 324.14325 207.255764 
" clip-path="url(#pb5a0dfd1c3)" style="fill: none; stroke: #393939; stroke-width: 1.5; stroke-linecap: round"/>
   </g>
   <g id="line2d_40">
    <path d="M 359.702813 307.417383 
L 359.702813 371.113636 
" clip-path="url(#pb5a0dfd1c3)" style="fill: none; stroke: #393939; stroke-width: 1.5; stroke-linecap: round"/>
   </g>
   <g id="line2d_41">
    <path d="M 359.702813 243.425785 
L 359.702813 182.052919 
" clip-path="url(#pb5a0dfd1c3)" style="fill: none; stroke: #393939; stroke-width: 1.5; stroke-linecap: round"/>
   </g>
   <g id="line2d_42">
    <path d="M 352.159875 371.113636 
L 367.24575 371.113636 
" clip-path="url(#pb5a0dfd1c3)" style="fill: none; stroke: #393939; stroke-width: 1.5; stroke-linecap: round"/>
   </g>
   <g id="line2d_43">
    <path d="M 352.159875 182.052919 
L 367.24575 182.052919 
" clip-path="url(#pb5a0dfd1c3)" style="fill: none; stroke: #393939; stroke-width: 1.5; stroke-linecap: round"/>
   </g>
   <g id="line2d_44">
    <path d="M 402.805313 307.417383 
L 402.805313 371.113636 
" clip-path="url(#pb5a0dfd1c3)" style="fill: none; stroke: #393939; stroke-width: 1.5; stroke-linecap: round"/>
   </g>
   <g id="line2d_45">
    <path d="M 402.805313 243.425785 
L 402.805313 182.052919 
" clip-path="url(#pb5a0dfd1c3)" style="fill: none; stroke: #393939; stroke-width: 1.5; stroke-linecap: round"/>
   </g>
   <g id="line2d_46">
    <path d="M 395.262375 371.113636 
L 410.34825 371.113636 
" clip-path="url(#pb5a0dfd1c3)" style="fill: none; stroke: #393939; stroke-width: 1.5; stroke-linecap: round"/>
   </g>
   <g id="line2d_47">
    <path d="M 395.262375 182.052919 
L 410.34825 182.052919 
" clip-path="url(#pb5a0dfd1c3)" style="fill: none; stroke: #393939; stroke-width: 1.5; stroke-linecap: round"/>
   </g>
   <g id="line2d_48">
    <path d="M 258.411938 289.066562 
L 288.583688 289.066562 
" clip-path="url(#pb5a0dfd1c3)" style="fill: none; stroke: #393939; stroke-width: 1.5; stroke-linecap: round"/>
   </g>
   <g id="line2d_49">
    <path d="M 301.514438 278.749147 
L 331.686188 278.749147 
" clip-path="url(#pb5a0dfd1c3)" style="fill: none; stroke: #393939; stroke-width: 1.5; stroke-linecap: round"/>
   </g>
   <g id="line2d_50">
    <path d="M 344.616938 275.618481 
L 374.788688 275.618481 
" clip-path="url(#pb5a0dfd1c3)" style="fill: none; stroke: #393939; stroke-width: 1.5; stroke-linecap: round"/>
   </g>
   <g id="line2d_51">
    <path d="M 387.719438 275.618481 
L 417.891188 275.618481 
" clip-path="url(#pb5a0dfd1c3)" style="fill: none; stroke: #393939; stroke-width: 1.5; stroke-linecap: round"/>
   </g>
   <g id="patch_19">
    <path d="M 251.946563 386.1 
L 251.946563 56.4 
" style="fill: none; stroke: #cccccc; stroke-width: 1.25; stroke-linejoin: miter; stroke-linecap: square"/>
   </g>
   <g id="patch_20">
    <path d="M 251.946563 386.1 
L 424.356562 386.1 
" style="fill: none; stroke: #cccccc; stroke-width: 1.25; stroke-linejoin: miter; stroke-linecap: square"/>
   </g>
   <g id="text_21">
    <!-- 10j -->
    <g style="fill: #262626" transform="translate(326.142188 50.4) scale(0.18 -0.18)">
     <use xlink:href="#ArialMT-31"/>
     <use xlink:href="#ArialMT-30" x="55.615234"/>
     <use xlink:href="#ArialMT-6a" x="111.230469"/>
    </g>
   </g>
  </g>
  <g id="axes_3">
   <g id="patch_21">
    <path d="M 443.796562 386.1 
L 616.206563 386.1 
L 616.206563 56.4 
L 443.796562 56.4 
z
" style="fill: #ffffff"/>
   </g>
   <g id="matplotlib.axis_5">
    <g id="xtick_9">
     <g id="text_22">
      <!-- 0 -->
      <g style="fill: #262626" transform="translate(460.760039 407.410391) scale(0.165 -0.165)">
       <use xlink:href="#ArialMT-30"/>
      </g>
     </g>
    </g>
    <g id="xtick_10">
     <g id="text_23">
      <!-- + -->
      <g style="fill: #262626" transform="translate(503.631797 407.410391) scale(0.165 -0.165)">
       <use xlink:href="#ArialMT-2b"/>
      </g>
     </g>
    </g>
    <g id="xtick_11">
     <g id="text_24">
      <!-- ++ -->
      <g style="fill: #262626" transform="translate(541.915781 407.410391) scale(0.165 -0.165)">
       <use xlink:href="#ArialMT-2b"/>
       <use xlink:href="#ArialMT-2b" x="58.398438"/>
      </g>
     </g>
    </g>
    <g id="xtick_12">
     <g id="text_25">
      <!-- +++ -->
      <g style="fill: #262626" transform="translate(580.199766 407.410391) scale(0.165 -0.165)">
       <use xlink:href="#ArialMT-2b"/>
       <use xlink:href="#ArialMT-2b" x="58.398438"/>
       <use xlink:href="#ArialMT-2b" x="116.796875"/>
      </g>
     </g>
    </g>
    <g id="text_26">
     <!--   -->
     <g style="fill: #262626" transform="translate(527.50125 427.573828) scale(0.18 -0.18)">
      <use xlink:href="#ArialMT-20"/>
     </g>
    </g>
   </g>
   <g id="matplotlib.axis_6">
    <g id="ytick_17">
     <g id="line2d_52">
      <path d="M 443.796562 372.180819 
L 616.206563 372.180819 
" clip-path="url(#pc76723fa9f)" style="fill: none; stroke: #cccccc; stroke-linecap: round"/>
     </g>
    </g>
    <g id="ytick_18">
     <g id="line2d_53">
      <path d="M 443.796562 330.623691 
L 616.206563 330.623691 
" clip-path="url(#pc76723fa9f)" style="fill: none; stroke: #cccccc; stroke-linecap: round"/>
     </g>
    </g>
    <g id="ytick_19">
     <g id="line2d_54">
      <path d="M 443.796562 289.066562 
L 616.206563 289.066562 
" clip-path="url(#pc76723fa9f)" style="fill: none; stroke: #cccccc; stroke-linecap: round"/>
     </g>
    </g>
    <g id="ytick_20">
     <g id="line2d_55">
      <path d="M 443.796562 247.509433 
L 616.206563 247.509433 
" clip-path="url(#pc76723fa9f)" style="fill: none; stroke: #cccccc; stroke-linecap: round"/>
     </g>
    </g>
    <g id="ytick_21">
     <g id="line2d_56">
      <path d="M 443.796562 205.952304 
L 616.206563 205.952304 
" clip-path="url(#pc76723fa9f)" style="fill: none; stroke: #cccccc; stroke-linecap: round"/>
     </g>
    </g>
    <g id="ytick_22">
     <g id="line2d_57">
      <path d="M 443.796562 164.395176 
L 616.206563 164.395176 
" clip-path="url(#pc76723fa9f)" style="fill: none; stroke: #cccccc; stroke-linecap: round"/>
     </g>
    </g>
    <g id="ytick_23">
     <g id="line2d_58">
      <path d="M 443.796562 122.838047 
L 616.206563 122.838047 
" clip-path="url(#pc76723fa9f)" style="fill: none; stroke: #cccccc; stroke-linecap: round"/>
     </g>
    </g>
    <g id="ytick_24">
     <g id="line2d_59">
      <path d="M 443.796562 81.280918 
L 616.206563 81.280918 
" clip-path="url(#pc76723fa9f)" style="fill: none; stroke: #cccccc; stroke-linecap: round"/>
     </g>
    </g>
   </g>
   <g id="patch_22">
    <path d="M 450.261937 297.130624 
L 480.433687 297.130624 
L 480.433687 237.416988 
L 450.261937 237.416988 
L 450.261937 297.130624 
z
" clip-path="url(#pc76723fa9f)" style="fill: #3c6682; stroke: #393939; stroke-width: 1.5; stroke-linejoin: miter"/>
   </g>
   <g id="patch_23">
    <path d="M 493.364438 312.714547 
L 523.536187 312.714547 
L 523.536187 255.622968 
L 493.364438 255.622968 
L 493.364438 312.714547 
z
" clip-path="url(#pc76723fa9f)" style="fill: #3c6682; stroke: #393939; stroke-width: 1.5; stroke-linejoin: miter"/>
   </g>
   <g id="patch_24">
    <path d="M 536.466937 290.822845 
L 566.638687 290.822845 
L 566.638687 181.018027 
L 536.466937 181.018027 
L 536.466937 290.822845 
z
" clip-path="url(#pc76723fa9f)" style="fill: #3c6682; stroke: #393939; stroke-width: 1.5; stroke-linejoin: miter"/>
   </g>
   <g id="patch_25">
    <path d="M 465.347812 496.852206 
L 465.347812 496.852206 
L 465.347812 496.852206 
L 465.347812 496.852206 
z
" clip-path="url(#pc76723fa9f)" style="fill: #3c6682; stroke: #393939; stroke-width: 0.75; stroke-linejoin: miter"/>
   </g>
   <g id="patch_26">
    <path d="M 465.347812 496.852206 
L 465.347812 496.852206 
L 465.347812 496.852206 
L 465.347812 496.852206 
z
" clip-path="url(#pc76723fa9f)" style="fill: #45a778; stroke: #393939; stroke-width: 0.75; stroke-linejoin: miter"/>
   </g>
   <g id="patch_27">
    <path d="M 465.347812 496.852206 
L 465.347812 496.852206 
L 465.347812 496.852206 
L 465.347812 496.852206 
z
" clip-path="url(#pc76723fa9f)" style="fill: #3c6682; stroke: #393939; stroke-width: 0.75; stroke-linejoin: miter"/>
   </g>
   <g id="line2d_60">
    <path d="M 465.347812 297.130624 
L 465.347812 368.569307 
" clip-path="url(#pc76723fa9f)" style="fill: none; stroke: #393939; stroke-width: 1.5; stroke-linecap: round"/>
   </g>
   <g id="line2d_61">
    <path d="M 465.347812 237.416988 
L 465.347812 209.712235 
" clip-path="url(#pc76723fa9f)" style="fill: none; stroke: #393939; stroke-width: 1.5; stroke-linecap: round"/>
   </g>
   <g id="line2d_62">
    <path d="M 457.804875 368.569307 
L 472.89075 368.569307 
" clip-path="url(#pc76723fa9f)" style="fill: none; stroke: #393939; stroke-width: 1.5; stroke-linecap: round"/>
   </g>
   <g id="line2d_63">
    <path d="M 457.804875 209.712235 
L 472.89075 209.712235 
" clip-path="url(#pc76723fa9f)" style="fill: none; stroke: #393939; stroke-width: 1.5; stroke-linecap: round"/>
   </g>
   <g id="line2d_64">
    <path d="M 508.450312 312.714547 
L 508.450312 364.463067 
" clip-path="url(#pc76723fa9f)" style="fill: none; stroke: #393939; stroke-width: 1.5; stroke-linecap: round"/>
   </g>
   <g id="line2d_65">
    <path d="M 508.450312 255.622968 
L 508.450312 240.929554 
" clip-path="url(#pc76723fa9f)" style="fill: none; stroke: #393939; stroke-width: 1.5; stroke-linecap: round"/>
   </g>
   <g id="line2d_66">
    <path d="M 500.907375 364.463067 
L 515.99325 364.463067 
" clip-path="url(#pc76723fa9f)" style="fill: none; stroke: #393939; stroke-width: 1.5; stroke-linecap: round"/>
   </g>
   <g id="line2d_67">
    <path d="M 500.907375 240.929554 
L 515.99325 240.929554 
" clip-path="url(#pc76723fa9f)" style="fill: none; stroke: #393939; stroke-width: 1.5; stroke-linecap: round"/>
   </g>
   <g id="line2d_68">
    <path d="M 551.552812 290.822845 
L 551.552812 306.134668 
" clip-path="url(#pc76723fa9f)" style="fill: none; stroke: #393939; stroke-width: 1.5; stroke-linecap: round"/>
   </g>
   <g id="line2d_69">
    <path d="M 551.552812 181.018027 
L 551.552812 71.386364 
" clip-path="url(#pc76723fa9f)" style="fill: none; stroke: #393939; stroke-width: 1.5; stroke-linecap: round"/>
   </g>
   <g id="line2d_70">
    <path d="M 544.009875 306.134668 
L 559.09575 306.134668 
" clip-path="url(#pc76723fa9f)" style="fill: none; stroke: #393939; stroke-width: 1.5; stroke-linecap: round"/>
   </g>
   <g id="line2d_71">
    <path d="M 544.009875 71.386364 
L 559.09575 71.386364 
" clip-path="url(#pc76723fa9f)" style="fill: none; stroke: #393939; stroke-width: 1.5; stroke-linecap: round"/>
   </g>
   <g id="line2d_72">
    <path d="M 450.261937 289.066562 
L 480.433687 289.066562 
" clip-path="url(#pc76723fa9f)" style="fill: none; stroke: #393939; stroke-width: 1.5; stroke-linecap: round"/>
   </g>
   <g id="line2d_73">
    <path d="M 493.364438 306.777814 
L 523.536187 306.777814 
" clip-path="url(#pc76723fa9f)" style="fill: none; stroke: #393939; stroke-width: 1.5; stroke-linecap: round"/>
   </g>
   <g id="line2d_74">
    <path d="M 536.466937 222.921465 
L 566.638687 222.921465 
" clip-path="url(#pc76723fa9f)" style="fill: none; stroke: #393939; stroke-width: 1.5; stroke-linecap: round"/>
   </g>
   <g id="patch_28">
    <path d="M 443.796562 386.1 
L 443.796562 56.4 
" style="fill: none; stroke: #cccccc; stroke-width: 1.25; stroke-linejoin: miter; stroke-linecap: square"/>
   </g>
   <g id="patch_29">
    <path d="M 443.796562 386.1 
L 616.206563 386.1 
" style="fill: none; stroke: #cccccc; stroke-width: 1.25; stroke-linejoin: miter; stroke-linecap: square"/>
   </g>
   <g id="text_27">
    <!-- caff -->
    <g style="fill: #262626" transform="translate(515.653594 50.4) scale(0.18 -0.18)">
     <defs>
      <path id="ArialMT-61" d="M 2588 409 
Q 2275 144 1986 34 
Q 1697 -75 1366 -75 
Q 819 -75 525 192 
Q 231 459 231 875 
Q 231 1119 342 1320 
Q 453 1522 633 1644 
Q 813 1766 1038 1828 
Q 1203 1872 1538 1913 
Q 2219 1994 2541 2106 
Q 2544 2222 2544 2253 
Q 2544 2597 2384 2738 
Q 2169 2928 1744 2928 
Q 1347 2928 1158 2789 
Q 969 2650 878 2297 
L 328 2372 
Q 403 2725 575 2942 
Q 747 3159 1072 3276 
Q 1397 3394 1825 3394 
Q 2250 3394 2515 3294 
Q 2781 3194 2906 3042 
Q 3031 2891 3081 2659 
Q 3109 2516 3109 2141 
L 3109 1391 
Q 3109 606 3145 398 
Q 3181 191 3288 0 
L 2700 0 
Q 2613 175 2588 409 
z
M 2541 1666 
Q 2234 1541 1622 1453 
Q 1275 1403 1131 1340 
Q 988 1278 909 1158 
Q 831 1038 831 891 
Q 831 666 1001 516 
Q 1172 366 1500 366 
Q 1825 366 2078 508 
Q 2331 650 2450 897 
Q 2541 1088 2541 1459 
L 2541 1666 
z
" transform="scale(0.015625)"/>
     </defs>
     <use xlink:href="#ArialMT-63"/>
     <use xlink:href="#ArialMT-61" x="50"/>
     <use xlink:href="#ArialMT-66" x="105.615234"/>
     <use xlink:href="#ArialMT-66" x="131.648438"/>
    </g>
   </g>
  </g>
  <g id="text_28">
   <!-- Sum top time -->
   <g style="fill: #262626" transform="translate(291.61875 21.759375) scale(0.2 -0.2)">
    <defs>
     <path id="ArialMT-53" d="M 288 1472 
L 859 1522 
Q 900 1178 1048 958 
Q 1197 738 1509 602 
Q 1822 466 2213 466 
Q 2559 466 2825 569 
Q 3091 672 3220 851 
Q 3350 1031 3350 1244 
Q 3350 1459 3225 1620 
Q 3100 1781 2813 1891 
Q 2628 1963 1997 2114 
Q 1366 2266 1113 2400 
Q 784 2572 623 2826 
Q 463 3081 463 3397 
Q 463 3744 659 4045 
Q 856 4347 1234 4503 
Q 1613 4659 2075 4659 
Q 2584 4659 2973 4495 
Q 3363 4331 3572 4012 
Q 3781 3694 3797 3291 
L 3216 3247 
Q 3169 3681 2898 3903 
Q 2628 4125 2100 4125 
Q 1550 4125 1298 3923 
Q 1047 3722 1047 3438 
Q 1047 3191 1225 3031 
Q 1400 2872 2139 2705 
Q 2878 2538 3153 2413 
Q 3553 2228 3743 1945 
Q 3934 1663 3934 1294 
Q 3934 928 3725 604 
Q 3516 281 3123 101 
Q 2731 -78 2241 -78 
Q 1619 -78 1198 103 
Q 778 284 539 648 
Q 300 1013 288 1472 
z
" transform="scale(0.015625)"/>
     <path id="ArialMT-75" d="M 2597 0 
L 2597 488 
Q 2209 -75 1544 -75 
Q 1250 -75 995 37 
Q 741 150 617 320 
Q 494 491 444 738 
Q 409 903 409 1263 
L 409 3319 
L 972 3319 
L 972 1478 
Q 972 1038 1006 884 
Q 1059 663 1231 536 
Q 1403 409 1656 409 
Q 1909 409 2131 539 
Q 2353 669 2445 892 
Q 2538 1116 2538 1541 
L 2538 3319 
L 3100 3319 
L 3100 0 
L 2597 0 
z
" transform="scale(0.015625)"/>
     <path id="ArialMT-6d" d="M 422 0 
L 422 3319 
L 925 3319 
L 925 2853 
Q 1081 3097 1340 3245 
Q 1600 3394 1931 3394 
Q 2300 3394 2536 3241 
Q 2772 3088 2869 2813 
Q 3263 3394 3894 3394 
Q 4388 3394 4653 3120 
Q 4919 2847 4919 2278 
L 4919 0 
L 4359 0 
L 4359 2091 
Q 4359 2428 4304 2576 
Q 4250 2725 4106 2815 
Q 3963 2906 3769 2906 
Q 3419 2906 3187 2673 
Q 2956 2441 2956 1928 
L 2956 0 
L 2394 0 
L 2394 2156 
Q 2394 2531 2256 2718 
Q 2119 2906 1806 2906 
Q 1569 2906 1367 2781 
Q 1166 2656 1075 2415 
Q 984 2175 984 1722 
L 984 0 
L 422 0 
z
" transform="scale(0.015625)"/>
     <path id="ArialMT-70" d="M 422 -1272 
L 422 3319 
L 934 3319 
L 934 2888 
Q 1116 3141 1344 3267 
Q 1572 3394 1897 3394 
Q 2322 3394 2647 3175 
Q 2972 2956 3137 2557 
Q 3303 2159 3303 1684 
Q 3303 1175 3120 767 
Q 2938 359 2589 142 
Q 2241 -75 1856 -75 
Q 1575 -75 1351 44 
Q 1128 163 984 344 
L 984 -1272 
L 422 -1272 
z
M 931 1641 
Q 931 1000 1190 694 
Q 1450 388 1819 388 
Q 2194 388 2461 705 
Q 2728 1022 2728 1688 
Q 2728 2322 2467 2637 
Q 2206 2953 1844 2953 
Q 1484 2953 1207 2617 
Q 931 2281 931 1641 
z
" transform="scale(0.015625)"/>
     <path id="ArialMT-69" d="M 425 3934 
L 425 4581 
L 988 4581 
L 988 3934 
L 425 3934 
z
M 425 0 
L 425 3319 
L 988 3319 
L 988 0 
L 425 0 
z
" transform="scale(0.015625)"/>
     <path id="ArialMT-65" d="M 2694 1069 
L 3275 997 
Q 3138 488 2766 206 
Q 2394 -75 1816 -75 
Q 1088 -75 661 373 
Q 234 822 234 1631 
Q 234 2469 665 2931 
Q 1097 3394 1784 3394 
Q 2450 3394 2872 2941 
Q 3294 2488 3294 1666 
Q 3294 1616 3291 1516 
L 816 1516 
Q 847 969 1125 678 
Q 1403 388 1819 388 
Q 2128 388 2347 550 
Q 2566 713 2694 1069 
z
M 847 1978 
L 2700 1978 
Q 2663 2397 2488 2606 
Q 2219 2931 1791 2931 
Q 1403 2931 1139 2672 
Q 875 2413 847 1978 
z
" transform="scale(0.015625)"/>
    </defs>
    <use xlink:href="#ArialMT-53"/>
    <use xlink:href="#ArialMT-75" x="66.699219"/>
    <use xlink:href="#ArialMT-6d" x="122.314453"/>
    <use xlink:href="#ArialMT-20" x="205.615234"/>
    <use xlink:href="#ArialMT-74" x="233.398438"/>
    <use xlink:href="#ArialMT-6f" x="261.181641"/>
    <use xlink:href="#ArialMT-70" x="316.796875"/>
    <use xlink:href="#ArialMT-20" x="372.412109"/>
    <use xlink:href="#ArialMT-74" x="400.195312"/>
    <use xlink:href="#ArialMT-69" x="427.978516"/>
    <use xlink:href="#ArialMT-6d" x="450.195312"/>
    <use xlink:href="#ArialMT-65" x="533.496094"/>
   </g>
  </g>
  <g id="text_29">
   <!-- Effector dose -->
   <g style="fill: #262626" transform="translate(214.446562 432.72) scale(0.18 -0.18)">
    <defs>
     <path id="ArialMT-45" d="M 506 0 
L 506 4581 
L 3819 4581 
L 3819 4041 
L 1113 4041 
L 1113 2638 
L 3647 2638 
L 3647 2100 
L 1113 2100 
L 1113 541 
L 3925 541 
L 3925 0 
L 506 0 
z
" transform="scale(0.015625)"/>
     <path id="ArialMT-73" d="M 197 991 
L 753 1078 
Q 800 744 1014 566 
Q 1228 388 1613 388 
Q 2000 388 2187 545 
Q 2375 703 2375 916 
Q 2375 1106 2209 1216 
Q 2094 1291 1634 1406 
Q 1016 1563 777 1677 
Q 538 1791 414 1992 
Q 291 2194 291 2438 
Q 291 2659 392 2848 
Q 494 3038 669 3163 
Q 800 3259 1026 3326 
Q 1253 3394 1513 3394 
Q 1903 3394 2198 3281 
Q 2494 3169 2634 2976 
Q 2775 2784 2828 2463 
L 2278 2388 
Q 2241 2644 2061 2787 
Q 1881 2931 1553 2931 
Q 1166 2931 1000 2803 
Q 834 2675 834 2503 
Q 834 2394 903 2306 
Q 972 2216 1119 2156 
Q 1203 2125 1616 2013 
Q 2213 1853 2448 1751 
Q 2684 1650 2818 1456 
Q 2953 1263 2953 975 
Q 2953 694 2789 445 
Q 2625 197 2315 61 
Q 2006 -75 1616 -75 
Q 969 -75 630 194 
Q 291 463 197 991 
z
" transform="scale(0.015625)"/>
    </defs>
    <use xlink:href="#ArialMT-45"/>
    <use xlink:href="#ArialMT-66" x="66.699219"/>
    <use xlink:href="#ArialMT-66" x="92.732422"/>
    <use xlink:href="#ArialMT-65" x="120.515625"/>
    <use xlink:href="#ArialMT-63" x="176.130859"/>
    <use xlink:href="#ArialMT-74" x="226.130859"/>
    <use xlink:href="#ArialMT-6f" x="253.914062"/>
    <use xlink:href="#ArialMT-72" x="309.529297"/>
    <use xlink:href="#ArialMT-20" x="342.830078"/>
    <use xlink:href="#ArialMT-64" x="370.613281"/>
    <use xlink:href="#ArialMT-6f" x="426.228516"/>
    <use xlink:href="#ArialMT-73" x="481.84375"/>
    <use xlink:href="#ArialMT-65" x="531.84375"/>
   </g>
  </g>
 </g>
 <defs>
  <clipPath id="p7e530163e8">
   <rect x="60.096563" y="56.4" width="172.41" height="329.7"/>
  </clipPath>
  <clipPath id="pb5a0dfd1c3">
   <rect x="251.946563" y="56.4" width="172.41" height="329.7"/>
  </clipPath>
  <clipPath id="pc76723fa9f">
   <rect x="443.796562" y="56.4" width="172.41" height="329.7"/>
  </clipPath>
 </defs>
</svg>
